<?xml version="1.0" encoding="UTF-8"?>
<svg width="386px" height="109px" viewBox="0 0 386 109" version="1.1" xmlns="http://www.w3.org/2000/svg" xmlns:xlink="http://www.w3.org/1999/xlink">
    <!-- Generator: Sketch 50.2 (55047) - http://www.bohemiancoding.com/sketch -->
    <title>protocol-white-sub</title>
    <desc>Created with Sketch.</desc>
    <defs></defs>
    <g id="Page-1" stroke="none" stroke-width="1" fill="none" fill-rule="evenodd">
        <g id="On-dark" transform="translate(-622.000000, -323.000000)">
            <g id="protocol-sub_white" transform="translate(622.000000, 322.000000)">
                <path d="M41.302,47.172 C41.302,39.472 36.1,33.172 27.302,33.172 C18.502,33.172 13.3,39.472 13.3,47.172 C13.3,54.87 19.002,61.172 27.302,61.172 C35.6,61.172 41.302,54.87 41.302,47.172 M0,92.374 L0,22.47 L11.4,22.47 L12.202,29.27 C16.002,23.77 22.6,21.37 28.202,21.37 C43.402,21.37 53.504,32.672 53.504,47.172 C53.504,61.574 44.402,72.974 28.6,72.974 C23.402,72.974 15.702,71.374 12.202,65.972 L12.202,92.374 L0,92.374 Z M71.8,22.47 L72.702,28.17 C76.502,22.07 81.6,21.17 86.6,21.17 C91.702,21.17 96.6,23.17 99.302,25.872 L93.802,36.47 C91.302,34.372 89.002,33.272 85.002,33.272 C78.6,33.272 72.702,36.67 72.702,45.772 L72.702,71.774 L60.5,71.774 L60.5,22.47 L71.8,22.47 Z M187.5,8.57 L187.5,22.57 L201.102,22.57 L201.102,33.072 L187.398,33.072 L187.398,54.372 C187.398,59.072 190,61.374 193.798,61.374 C195.702,61.374 197.898,60.774 199.702,59.874 L203.102,70.274 C199.602,71.674 196.702,72.274 193,72.374 C182.296,72.774 175.296,66.674 175.296,54.372 L175.296,33.072 L166.1,33.072 L166.1,22.57 L175.296,22.57 L175.296,9.87 L187.5,8.57 Z M257.202,47.172 C257.202,61.374 247.5,72.874 231.498,72.874 C215.498,72.874 205.894,61.374 205.894,47.172 C205.894,33.072 215.698,21.47 231.396,21.47 C247.1,21.47 257.202,33.072 257.202,47.172 Z M218.098,47.172 C218.098,54.672 222.598,61.672 231.498,61.672 C240.398,61.672 244.898,54.672 244.898,47.172 C244.898,39.772 239.7,32.572 231.498,32.572 C222.7,32.572 218.098,39.772 218.098,47.172 Z M307.898,65.472 C302.196,71.072 296.196,73.274 288.896,73.274 C274.596,73.274 262.694,64.672 262.694,47.172 C262.694,29.67 274.596,21.07 288.896,21.07 C295.898,21.07 301.298,23.07 306.698,28.372 L298.998,36.472 C296.098,33.872 292.498,32.57 289.098,32.57 C280.896,32.57 274.896,38.57 274.896,47.172 C274.896,56.572 281.296,61.572 288.896,61.572 C292.796,61.572 296.696,60.472 299.696,57.472 L307.898,65.472 Z M363.298,47.172 C363.298,61.374 353.598,72.874 337.596,72.874 C321.596,72.874 311.992,61.374 311.992,47.172 C311.992,33.072 321.794,21.47 337.494,21.47 C353.198,21.47 363.298,33.072 363.298,47.172 Z M324.196,47.172 C324.196,54.672 328.696,61.672 337.596,61.672 C346.496,61.672 350.996,54.672 350.996,47.172 C350.996,39.772 345.796,32.572 337.596,32.572 C328.796,32.572 324.196,39.772 324.196,47.172 Z M383.606,1.838 L383.984,71.74 L371.88,71.804 L371.504,1.902 L383.606,1.838 Z" id="Combined-Shape" fill="#FFFFFE"></path>
                <path d="M40.77,100.474 L38.024,100.474 L38.024,93.162 L40.656,93.162 C43.878,93.162 45.504,94.032 45.504,96.694 C45.504,99.298 43.962,100.474 40.77,100.474 Z M54.122,100.39 C54.122,94.508 57.344,90.95 61.966,90.95 C66.59,90.95 69.84,94.534 69.84,100.39 C69.84,106.298 66.59,110 61.966,110 C57.344,110 54.122,106.298 54.122,100.39 Z M35.7,91.284 L40.938,91.284 C45.056,91.284 47.83,92.658 47.83,96.694 C47.83,100.558 45.084,102.378 41.05,102.378 L38.024,102.378 L38.024,109.662 L35.7,109.662 L35.7,91.284 Z M67.402,100.39 C67.402,104.984 65.244,107.952 61.966,107.952 C58.69,107.952 56.53,104.984 56.53,100.39 C56.53,95.824 58.69,92.994 61.966,92.994 C65.244,92.994 67.402,95.824 67.402,100.39 Z M75.374,91.284 L77.782,91.284 L79.714,101.284 C80.05,103.276 80.444,105.236 80.78,107.224 L80.892,107.224 C81.312,105.236 81.758,103.248 82.18,101.284 L84.73,91.284 L86.86,91.284 L89.408,101.284 C89.858,103.218 90.304,105.236 90.752,107.224 L90.866,107.224 C91.202,105.236 91.538,103.248 91.902,101.284 L93.832,91.284 L96.076,91.284 L92.266,109.664 L89.464,109.664 L86.692,98.598 C86.356,97.168 86.074,95.852 85.794,94.424 L85.68,94.424 C85.402,95.852 85.066,97.168 84.756,98.598 L82.042,109.664 L79.268,109.664 L75.374,91.284 Z M121.294,91.288 L127.038,91.288 C130.792,91.288 133.48,92.63 133.48,96.44 C133.48,99.298 131.858,101.034 129.334,101.65 L134.012,109.664 L131.38,109.664 L126.954,101.904 L123.62,101.904 L123.62,109.664 L121.294,109.664 L121.294,91.288 Z M102.898,91.284 L113.488,91.284 L113.488,93.246 L105.222,93.246 L105.222,99.018 L112.198,99.018 L112.198,101.008 L105.222,101.008 L105.222,107.674 L113.768,107.674 L113.768,109.664 L102.898,109.664 L102.898,91.284 Z M126.702,99.998 C129.558,99.998 131.156,98.822 131.156,96.44 C131.156,94.03 129.558,93.162 126.702,93.162 L123.62,93.162 L123.62,99.998 L126.702,99.998 Z M159.262,91.284 L163.856,91.284 C169.516,91.284 172.542,94.562 172.542,100.388 C172.542,106.244 169.516,109.662 163.968,109.662 L159.262,109.662 L159.262,91.284 Z M140.866,91.284 L151.456,91.284 L151.456,93.246 L143.19,93.246 L143.19,99.018 L150.164,99.018 L150.164,101.008 L143.19,101.008 L143.19,107.674 L151.734,107.674 L151.734,109.664 L140.866,109.664 L140.866,91.284 Z M163.688,107.758 C167.974,107.758 170.13,105.042 170.13,100.388 C170.13,95.768 167.974,93.192 163.688,93.192 L161.586,93.192 L161.586,107.758 L163.688,107.758 Z M189.362,91.284 L194.824,91.284 C198.55,91.284 201.126,92.544 201.126,95.768 C201.126,97.59 200.174,99.212 198.436,99.774 L198.436,99.884 C200.65,100.304 202.192,101.764 202.192,104.284 C202.192,107.898 199.334,109.664 195.216,109.664 L189.362,109.664 L189.362,91.284 Z M194.88,107.814 C198.044,107.814 199.894,106.666 199.894,104.2 C199.894,101.932 198.1,100.896 194.88,100.896 L191.684,100.896 L191.684,107.814 L194.88,107.814 Z M194.404,99.102 C197.542,99.102 198.83,97.952 198.83,96.076 C198.83,93.946 197.374,93.132 194.514,93.132 L191.684,93.132 L191.684,99.102 L194.404,99.102 Z M212.042,102.546 L206.526,91.284 L209.016,91.284 L211.398,96.466 C211.988,97.812 212.548,99.102 213.164,100.474 L213.276,100.474 C213.918,99.102 214.564,97.812 215.126,96.466 L217.478,91.284 L219.916,91.284 L214.396,102.546 L214.396,109.662 L212.042,109.662 L212.042,102.546 Z M256.48,91.342 L260.29,91.342 L266.256,109.664 L262.84,109.664 L261.41,104.702 L255.246,104.702 L253.818,109.664 L250.512,109.664 L256.48,91.342 Z M238.784,94.088 L233.488,94.088 L233.488,91.342 L247.326,91.342 L247.326,94.088 L242.034,94.088 L242.034,109.664 L238.784,109.664 L238.784,94.088 Z M256.004,102.156 L260.682,102.156 L260.038,99.914 C259.45,97.98 258.916,95.878 258.382,93.864 L258.274,93.864 C257.768,95.908 257.236,97.98 256.648,99.914 L256.004,102.156 Z M289.376,100.418 C289.376,94.506 292.682,91.004 297.446,91.004 C302.234,91.004 305.542,94.506 305.542,100.418 C305.542,106.356 302.234,110 297.446,110 C292.682,110 289.376,106.356 289.376,100.418 Z M275.406,100.222 L270.532,91.342 L274.146,91.342 L276.164,95.404 C276.612,96.244 277.004,97.112 277.564,98.206 L277.676,98.206 C278.124,97.112 278.488,96.244 278.908,95.404 L280.842,91.342 L284.286,91.342 L279.414,100.362 L284.622,109.664 L281.01,109.664 L278.77,105.348 C278.292,104.396 277.844,103.472 277.282,102.352 L277.172,102.352 C276.696,103.472 276.276,104.396 275.828,105.348 L273.642,109.664 L270.196,109.664 L275.406,100.222 Z M302.18,100.418 C302.18,96.328 300.33,93.834 297.446,93.834 C294.556,93.834 292.71,96.328 292.71,100.418 C292.71,104.538 294.556,107.168 297.446,107.168 C300.33,107.168 302.18,104.538 302.18,100.418 Z M328.716,100.418 C328.716,94.506 332.022,91.004 336.786,91.004 C341.574,91.004 344.88,94.506 344.88,100.418 C344.88,106.356 341.574,110 336.786,110 C332.022,110 328.716,106.356 328.716,100.418 Z M312.842,91.342 L316.09,91.342 L316.09,106.918 L323.71,106.918 L323.71,109.662 L312.842,109.662 L312.842,91.342 Z M341.52,100.418 C341.52,96.328 339.67,93.834 336.786,93.834 C333.896,93.834 332.05,96.328 332.05,100.418 C332.05,104.538 333.896,107.168 336.786,107.168 C339.67,107.168 341.52,104.538 341.52,100.418 Z M351.228,100.558 C351.228,94.562 355.01,91.004 359.884,91.004 C362.49,91.004 364.282,92.152 365.432,93.33 L363.694,95.434 C362.77,94.534 361.704,93.834 359.996,93.834 C356.748,93.834 354.562,96.356 354.562,100.474 C354.562,104.646 356.494,107.168 360.166,107.168 C361.2,107.168 362.21,106.89 362.798,106.358 L362.798,102.406 L359.324,102.406 L359.324,99.746 L365.712,99.746 L365.712,107.812 C364.478,109.046 362.35,109.998 359.856,109.998 C354.898,109.998 351.228,106.638 351.228,100.558 Z M376.458,102.856 L370.968,91.342 L374.442,91.342 L376.43,96.02 C376.962,97.394 377.466,98.654 378.056,100.052 L378.166,100.052 C378.754,98.654 379.316,97.394 379.848,96.02 L381.836,91.342 L385.228,91.342 L379.708,102.856 L379.708,109.664 L376.458,109.664 L376.458,102.856 Z" id="Combined-Shape" fill="#A6AFC0"></path>
                <g id="protocol-O" transform="translate(92.000000, 18.000000)">
                    <path d="M38.108,47.154 C35.65,46.182 33.54,44.958 31.694,43.574 C31.458,43.404 31.22,43.236 30.996,43.052 C30.668,42.792 30.36,42.514 30.048,42.238 C30.03,42.216 30.008,42.198 29.984,42.176 C21.652,34.65 20.586,22.874 24.702,12.482 C26.236,8.598 28.496,5.046 31.306,2.122 C30.182,2.474 29.048,2.878 27.914,3.37 C27.7,3.462 27.484,3.556 27.276,3.654 C27.048,3.756 26.85,3.878 26.628,3.984 C6.682,13.21 2.396,29.672 1.908,31.85 L19.814,24.102 L10.48,29.808 C10.596,33.644 11.41,37.55 13.05,41.338 C19.402,56.016 34.468,63.608 51.008,56.452 C60.116,52.51 65.666,45.814 67.776,38.146 C61.372,47.146 50.672,52.126 38.108,47.154" id="Fill-1" fill="#A3C93C"></path>
                    <path d="M36.597028,0.93200001 L33.461028,4.19600001 C30.943028,6.82000001 28.873028,10.064 27.481028,13.578 C25.765028,17.912 25.109028,22.238 25.445028,26.258 C26.673028,19.262 31.691028,13.244 40.227028,13.244 C49.463028,13.244 55.319028,21.35 55.319028,29.684 C55.319028,37.116 51.393028,44.104 43.627028,45.682 C45.065028,45.968 46.487028,46.118 47.881028,46.118 C54.669028,46.118 60.865028,42.664 65.321028,36.402 L69.111028,31.074 C69.131028,30.61 69.171028,30.154 69.171028,29.684 C69.171028,13.806 57.795028,0.74000001 40.117028,0.74000001 C38.909028,0.74000001 37.741028,0.81400001 36.597028,0.93200001" id="Fill-2" fill="#5AB146"></path>
                </g>
            </g>
        </g>
    </g>
</svg>