<?xml version="1.0" encoding="UTF-8"?>
<svg width="384px" height="91px" viewBox="0 0 384 91" version="1.1" xmlns="http://www.w3.org/2000/svg" xmlns:xlink="http://www.w3.org/1999/xlink">
    <!-- Generator: Sketch 50.2 (55047) - http://www.bohemiancoding.com/sketch -->
    <title>protocol</title>
    <desc>Created with Sketch.</desc>
    <defs></defs>
    <g id="Page-1" stroke="none" stroke-width="1" fill="none" fill-rule="evenodd">
        <g id="On-light" transform="translate(-603.000000, -128.000000)">
            <g id="protocol" transform="translate(603.000000, 127.000000)">
                <g id="protocol-O" transform="translate(92.000000, 18.000000)">
                    <path d="M38.108,47.154 C35.65,46.182 33.54,44.958 31.694,43.574 C31.458,43.404 31.22,43.236 30.996,43.052 C30.668,42.792 30.36,42.514 30.048,42.238 C30.03,42.216 30.008,42.198 29.984,42.176 C21.652,34.65 20.586,22.874 24.702,12.482 C26.236,8.598 28.496,5.046 31.306,2.122 C30.182,2.474 29.048,2.878 27.914,3.37 C27.7,3.462 27.484,3.556 27.276,3.654 C27.048,3.756 26.85,3.878 26.628,3.984 C6.682,13.21 2.396,29.672 1.908,31.85 L19.814,24.102 L10.48,29.808 C10.596,33.644 11.41,37.55 13.05,41.338 C19.402,56.016 34.468,63.608 51.008,56.452 C60.116,52.51 65.666,45.814 67.776,38.146 C61.372,47.146 50.672,52.126 38.108,47.154" id="Fill-1" fill="#A3C93C"></path>
                    <path d="M36.597028,0.93200001 L33.461028,4.19600001 C30.943028,6.82000001 28.873028,10.064 27.481028,13.578 C25.765028,17.912 25.109028,22.238 25.445028,26.258 C26.673028,19.262 31.691028,13.244 40.227028,13.244 C49.463028,13.244 55.319028,21.35 55.319028,29.684 C55.319028,37.116 51.393028,44.104 43.627028,45.682 C45.065028,45.968 46.487028,46.118 47.881028,46.118 C54.669028,46.118 60.865028,42.664 65.321028,36.402 L69.111028,31.074 C69.131028,30.61 69.171028,30.154 69.171028,29.684 C69.171028,13.806 57.795028,0.74000001 40.117028,0.74000001 C38.909028,0.74000001 37.741028,0.81400001 36.597028,0.93200001" id="Fill-2" fill="#5AB146"></path>
                </g>
                <path d="M12.204,28.896 C16.002,23.398 22.602,20.996 28.204,20.996 C43.404,20.996 53.504,32.296 53.504,46.798 C53.504,61.202 44.402,72.6 28.602,72.6 C23.404,72.6 15.702,70.998 12.204,65.598 L12.204,92 L0,92 L0,22.096 L11.4,22.096 L12.204,28.896 Z M13.302,46.798 C13.302,54.498 19.002,60.798 27.302,60.798 C35.602,60.798 41.302,54.498 41.302,46.798 C41.302,39.096 36.102,32.796 27.302,32.796 C18.502,32.796 13.302,39.096 13.302,46.798 Z M72.704,27.796 C76.502,21.696 81.602,20.796 86.602,20.796 C91.702,20.796 96.602,22.796 99.302,25.498 L93.802,36.098 C91.302,33.998 89.002,32.898 85.002,32.898 C78.602,32.898 72.704,36.296 72.704,45.396 L72.704,71.4 L60.5,71.4 L60.5,22.096 L71.802,22.096 L72.704,27.796 Z M175.298,9.496 L187.5,8.194 L187.5,22.196 L201.102,22.196 L201.102,32.698 L187.402,32.698 L187.402,53.998 C187.402,58.698 190,61 193.8,61 C195.702,61 197.9,60.398 199.702,59.498 L203.102,69.898 C199.602,71.298 196.704,71.9 193,72 C182.298,72.398 175.298,66.298 175.298,53.998 L175.298,32.698 L166.102,32.698 L166.102,22.196 L175.298,22.196 L175.298,9.496 Z M205.896,46.798 C205.896,32.698 215.7,21.096 231.398,21.096 C247.102,21.096 257.204,32.698 257.204,46.798 C257.204,61 247.5,72.5 231.498,72.5 C215.498,72.5 205.896,61 205.896,46.798 Z M218.098,46.798 C218.098,54.298 222.598,61.298 231.498,61.298 C240.4,61.298 244.9,54.298 244.9,46.798 C244.9,39.398 239.7,32.198 231.498,32.198 C222.702,32.198 218.098,39.398 218.098,46.798 Z M262.698,46.798 C262.698,29.298 274.596,20.696 288.896,20.696 C295.898,20.696 301.298,22.698 306.702,27.996 L298.998,36.098 C296.098,33.498 292.498,32.198 289.098,32.198 C280.896,32.198 274.898,38.196 274.898,46.798 C274.898,56.198 281.296,61.202 288.896,61.202 C292.796,61.202 296.7,60.1 299.7,57.098 L307.898,65.098 C302.2,70.702 296.198,72.898 288.896,72.898 C274.596,72.898 262.698,64.298 262.698,46.798 Z M311.994,46.798 C311.994,32.698 321.794,21.096 337.496,21.096 C353.2,21.096 363.298,32.698 363.298,46.798 C363.298,61 353.596,72.5 337.596,72.5 C321.596,72.5 311.994,61 311.994,46.798 Z M324.198,46.798 C324.198,54.298 328.698,61.298 337.596,61.298 C346.498,61.298 350.998,54.298 350.998,46.798 C350.998,39.398 345.798,32.198 337.596,32.198 C328.796,32.198 324.198,39.398 324.198,46.798 Z M371.696,71.4 L371.696,1.496 L383.796,1.496 L383.796,71.4 L371.696,71.4 Z" id="Combined-Shape" fill="#57616C"></path>
            </g>
        </g>
    </g>
</svg>