<?xml version="1.0" encoding="UTF-8"?>
<svg width="384px" height="91px" viewBox="0 0 384 91" version="1.1" xmlns="http://www.w3.org/2000/svg" xmlns:xlink="http://www.w3.org/1999/xlink">
    <!-- Generator: Sketch 50.2 (55047) - http://www.bohemiancoding.com/sketch -->
    <title>protocol-white</title>
    <desc>Created with Sketch.</desc>
    <defs></defs>
    <g id="Page-1" stroke="none" stroke-width="1" fill="none" fill-rule="evenodd">
        <g id="On-dark" transform="translate(-624.000000, -130.000000)">
            <g id="protocol_white" transform="translate(624.000000, 129.000000)">
                <path d="M0,92 L0,22.096 L11.4,22.096 L12.202,28.894 C16.002,23.394 22.6,20.994 28.202,20.994 C43.402,20.994 53.504,32.296 53.504,46.796 C53.504,61.2 44.402,72.6 28.6,72.6 C23.402,72.6 15.702,70.998 12.202,65.598 L12.202,92 L0,92 Z M41.302,46.796 C41.302,39.098 36.1,32.796 27.302,32.796 C18.502,32.796 13.3,39.098 13.3,46.796 C13.3,54.496 19.002,60.796 27.302,60.796 C35.6,60.796 41.302,54.496 41.302,46.796 Z M71.8,22.096 L72.702,27.794 C76.502,21.696 81.6,20.794 86.6,20.794 C91.702,20.794 96.6,22.794 99.302,25.496 L93.802,36.096 C91.302,33.996 89.002,32.896 85.002,32.896 C78.6,32.896 72.702,36.294 72.702,45.396 L72.702,71.398 L60.5,71.398 L60.5,22.096 L71.8,22.096 Z M187.5,8.196 L187.5,22.196 L201.102,22.196 L201.102,32.698 L187.398,32.698 L187.398,53.996 C187.398,58.698 190,60.998 193.798,60.998 C195.702,60.998 197.898,60.398 199.702,59.498 L203.102,69.898 C199.602,71.298 196.702,71.898 193,71.998 C182.296,72.398 175.296,66.298 175.296,53.996 L175.296,32.698 L166.1,32.698 L166.1,22.196 L175.296,22.196 L175.296,9.494 L187.5,8.196 Z M257.202,46.796 C257.202,60.998 247.5,72.498 231.498,72.498 C215.498,72.498 205.894,60.998 205.894,46.796 C205.894,32.698 215.698,21.096 231.396,21.096 C247.1,21.096 257.202,32.698 257.202,46.796 Z M218.098,46.796 C218.098,54.296 222.598,61.296 231.498,61.296 C240.398,61.296 244.898,54.296 244.898,46.796 C244.898,39.396 239.7,32.198 231.498,32.198 C222.7,32.198 218.098,39.396 218.098,46.796 Z M307.898,65.098 C302.196,70.698 296.196,72.898 288.896,72.898 C274.596,72.898 262.694,64.296 262.694,46.796 C262.694,29.294 274.596,20.696 288.896,20.696 C295.898,20.696 301.298,22.696 306.698,27.996 L298.998,36.098 C296.098,33.496 292.498,32.196 289.098,32.196 C280.896,32.196 274.896,38.196 274.896,46.796 C274.896,56.198 281.296,61.198 288.896,61.198 C292.796,61.198 296.696,60.098 299.696,57.098 L307.898,65.098 Z M363.298,46.796 C363.298,60.998 353.598,72.498 337.596,72.498 C321.596,72.498 311.992,60.998 311.992,46.796 C311.992,32.698 321.794,21.096 337.494,21.096 C353.198,21.096 363.298,32.698 363.298,46.796 Z M324.196,46.796 C324.196,54.296 328.696,61.296 337.596,61.296 C346.496,61.296 350.996,54.296 350.996,46.796 C350.996,39.396 345.796,32.198 337.596,32.198 C328.796,32.198 324.196,39.396 324.196,46.796 Z M383.606,1.462 L383.984,71.366 L371.88,71.43 L371.504,1.528 L383.606,1.462 Z" id="Combined-Shape" fill="#FFFFFE"></path>
                <g id="protocol-O" transform="translate(92.000000, 18.000000)">
                    <path d="M38.108,47.154 C35.65,46.182 33.54,44.958 31.694,43.574 C31.458,43.404 31.22,43.236 30.996,43.052 C30.668,42.792 30.36,42.514 30.048,42.238 C30.03,42.216 30.008,42.198 29.984,42.176 C21.652,34.65 20.586,22.874 24.702,12.482 C26.236,8.598 28.496,5.046 31.306,2.122 C30.182,2.474 29.048,2.878 27.914,3.37 C27.7,3.462 27.484,3.556 27.276,3.654 C27.048,3.756 26.85,3.878 26.628,3.984 C6.682,13.21 2.396,29.672 1.908,31.85 L19.814,24.102 L10.48,29.808 C10.596,33.644 11.41,37.55 13.05,41.338 C19.402,56.016 34.468,63.608 51.008,56.452 C60.116,52.51 65.666,45.814 67.776,38.146 C61.372,47.146 50.672,52.126 38.108,47.154" id="Fill-1" fill="#A3C93C"></path>
                    <path d="M36.597028,0.93200001 L33.461028,4.19600001 C30.943028,6.82000001 28.873028,10.064 27.481028,13.578 C25.765028,17.912 25.109028,22.238 25.445028,26.258 C26.673028,19.262 31.691028,13.244 40.227028,13.244 C49.463028,13.244 55.319028,21.35 55.319028,29.684 C55.319028,37.116 51.393028,44.104 43.627028,45.682 C45.065028,45.968 46.487028,46.118 47.881028,46.118 C54.669028,46.118 60.865028,42.664 65.321028,36.402 L69.111028,31.074 C69.131028,30.61 69.171028,30.154 69.171028,29.684 C69.171028,13.806 57.795028,0.74000001 40.117028,0.74000001 C38.909028,0.74000001 37.741028,0.81400001 36.597028,0.93200001" id="Fill-2" fill="#5AB146"></path>
                </g>
            </g>
        </g>
    </g>
</svg>