<?xml version="1.0" encoding="UTF-8"?>
<svg width="386px" height="109px" viewBox="0 0 386 109" version="1.1" xmlns="http://www.w3.org/2000/svg" xmlns:xlink="http://www.w3.org/1999/xlink">
    <!-- Generator: Sketch 50.2 (55047) - http://www.bohemiancoding.com/sketch -->
    <title>protocol-sub</title>
    <desc>Created with Sketch.</desc>
    <defs></defs>
    <g id="Page-1" stroke="none" stroke-width="1" fill="none" fill-rule="evenodd">
        <g id="On-light" transform="translate(-601.000000, -300.000000)">
            <g id="protocol-sub" transform="translate(601.000000, 299.000000)">
                <path d="M12.204,29.27 L11.4,22.468 L0,22.468 L0,92.374 L12.204,92.374 L12.204,65.97 C15.702,71.372 23.404,72.972 28.602,72.972 C44.402,72.972 53.504,61.574 53.504,47.172 C53.504,32.67 43.404,21.37 28.204,21.37 C22.602,21.37 16.002,23.772 12.204,29.27 M13.302,47.172 C13.302,39.468 18.502,33.168 27.302,33.168 C36.102,33.168 41.302,39.468 41.302,47.172 C41.302,54.872 35.602,61.172 27.302,61.172 C19.002,61.172 13.302,54.872 13.302,47.172 Z M72.704,28.168 C76.502,22.07 81.602,21.17 86.602,21.17 C91.702,21.17 96.602,23.17 99.302,25.872 L93.802,36.47 C91.302,34.372 89.002,33.272 85.002,33.272 C78.602,33.272 72.704,36.668 72.704,45.77 L72.704,71.774 L60.5,71.774 L60.5,22.468 L71.802,22.468 L72.704,28.168 Z M175.298,9.87 L187.5,8.568 L187.5,22.57 L201.102,22.57 L201.102,33.072 L187.402,33.072 L187.402,54.372 C187.402,59.07 190,61.374 193.8,61.374 C195.702,61.374 197.9,60.772 199.702,59.872 L203.102,70.272 C199.602,71.672 196.704,72.274 193,72.374 C182.298,72.772 175.298,66.672 175.298,54.372 L175.298,33.072 L166.102,33.072 L166.102,22.57 L175.298,22.57 L175.298,9.87 Z M205.896,47.172 C205.896,33.072 215.7,21.468 231.398,21.468 C247.102,21.468 257.204,33.072 257.204,47.172 C257.204,61.374 247.5,72.874 231.498,72.874 C215.498,72.874 205.896,61.374 205.896,47.172 Z M218.098,47.172 C218.098,54.672 222.598,61.672 231.498,61.672 C240.4,61.672 244.9,54.672 244.9,47.172 C244.9,39.772 239.7,32.572 231.498,32.572 C222.702,32.572 218.098,39.772 218.098,47.172 Z M262.698,47.172 C262.698,29.67 274.596,21.07 288.896,21.07 C295.898,21.07 301.298,23.072 306.702,28.37 L298.998,36.47 C296.098,33.872 292.498,32.572 289.098,32.572 C280.896,32.572 274.898,38.57 274.898,47.172 C274.898,56.572 281.296,61.574 288.896,61.574 C292.796,61.574 296.7,60.472 299.7,57.47 L307.898,65.47 C302.2,71.074 296.198,73.272 288.896,73.272 C274.596,73.272 262.698,64.672 262.698,47.172 Z M311.994,47.172 C311.994,33.072 321.794,21.468 337.496,21.468 C353.2,21.468 363.298,33.072 363.298,47.172 C363.298,61.374 353.596,72.874 337.596,72.874 C321.596,72.874 311.994,61.374 311.994,47.172 Z M324.198,47.172 C324.198,54.672 328.698,61.672 337.596,61.672 C346.498,61.672 350.998,54.672 350.998,47.172 C350.998,39.772 345.798,32.572 337.596,32.572 C328.796,32.572 324.198,39.772 324.198,47.172 Z M371.696,71.774 L371.696,1.87 L383.796,1.87 L383.796,71.774 L371.696,71.774 Z" id="Combined-Shape" fill="#57616C"></path>
                <path d="M40.77,100.472 C43.964,100.472 45.504,99.298 45.504,96.692 C45.504,94.03 43.88,93.16 40.658,93.16 L38.024,93.16 L38.024,100.472 L40.77,100.472 Z M35.7,91.284 L40.938,91.284 C45.058,91.284 47.83,92.656 47.83,96.692 C47.83,100.558 45.084,102.376 41.052,102.376 L38.024,102.376 L38.024,109.66 L35.7,109.66 L35.7,91.284 Z M54.124,100.388 C54.124,94.506 57.346,90.95 61.966,90.95 C66.592,90.95 69.842,94.536 69.842,100.388 C69.842,106.3 66.592,109.998 61.966,109.998 C57.346,109.998 54.124,106.3 54.124,100.388 Z M67.402,100.388 C67.402,95.822 65.244,92.992 61.966,92.992 C58.692,92.992 56.532,95.822 56.532,100.388 C56.532,104.982 58.692,107.954 61.966,107.954 C65.244,107.954 67.402,104.982 67.402,100.388 Z M75.374,91.286 L77.782,91.286 L79.714,101.286 C80.05,103.274 80.444,105.236 80.78,107.222 L80.892,107.222 C81.312,105.236 81.76,103.246 82.18,101.286 L84.73,91.286 L86.86,91.286 L89.41,101.286 C89.858,103.218 90.304,105.236 90.754,107.222 L90.866,107.222 C91.202,105.236 91.538,103.246 91.904,101.286 L93.834,91.286 L96.078,91.286 L92.266,109.662 L89.464,109.662 L86.692,98.596 C86.356,97.166 86.076,95.85 85.794,94.422 L85.682,94.422 C85.404,95.85 85.068,97.166 84.758,98.596 L82.042,109.662 L79.268,109.662 L75.374,91.286 Z M102.898,91.286 L113.488,91.286 L113.488,93.244 L105.222,93.244 L105.222,99.016 L112.2,99.016 L112.2,101.006 L105.222,101.006 L105.222,107.672 L113.77,107.672 L113.77,109.662 L102.898,109.662 L102.898,91.286 Z M121.294,91.286 L127.038,91.286 C130.792,91.286 133.482,92.63 133.482,96.438 C133.482,99.298 131.858,101.032 129.336,101.648 L134.014,109.664 L131.38,109.664 L126.954,101.902 L123.62,101.902 L123.62,109.664 L121.294,109.664 L121.294,91.286 Z M126.702,99.996 C129.56,99.996 131.158,98.82 131.158,96.438 C131.158,94.028 129.56,93.16 126.702,93.16 L123.62,93.16 L123.62,99.996 L126.702,99.996 Z M140.866,91.286 L151.456,91.286 L151.456,93.244 L143.19,93.244 L143.19,99.016 L150.166,99.016 L150.166,101.006 L143.19,101.006 L143.19,107.672 L151.736,107.672 L151.736,109.662 L140.866,109.662 L140.866,91.286 Z M159.262,91.286 L163.856,91.286 C169.516,91.286 172.542,94.56 172.542,100.388 C172.542,106.244 169.516,109.662 163.97,109.662 L159.262,109.662 L159.262,91.286 Z M163.688,107.758 C167.976,107.758 170.132,105.042 170.132,100.388 C170.132,95.766 167.976,93.188 163.688,93.188 L161.586,93.188 L161.586,107.758 L163.688,107.758 Z M189.362,91.284 L194.826,91.284 C198.55,91.284 201.126,92.544 201.126,95.768 C201.126,97.586 200.176,99.214 198.438,99.772 L198.438,99.884 C200.652,100.304 202.192,101.762 202.192,104.284 C202.192,107.898 199.336,109.66 195.216,109.66 L189.362,109.66 L189.362,91.284 Z M194.88,107.812 C198.044,107.812 199.894,106.664 199.894,104.2 C199.894,101.93 198.102,100.892 194.88,100.892 L191.686,100.892 L191.686,107.812 L194.88,107.812 Z M194.406,99.102 C197.542,99.102 198.832,97.952 198.832,96.074 C198.832,93.946 197.374,93.132 194.516,93.132 L191.686,93.132 L191.686,99.102 L194.406,99.102 Z M212.042,102.548 L206.526,91.284 L209.018,91.284 L211.4,96.466 C211.99,97.812 212.548,99.1 213.166,100.472 L213.276,100.472 C213.92,99.1 214.566,97.812 215.126,96.466 L217.48,91.284 L219.918,91.284 L214.398,102.548 L214.398,109.66 L212.042,109.66 L212.042,102.548 Z M238.784,94.086 L233.49,94.086 L233.49,91.34 L247.328,91.34 L247.328,94.086 L242.034,94.086 L242.034,109.66 L238.784,109.66 L238.784,94.086 Z M256.48,91.34 L260.292,91.34 L266.256,109.662 L262.84,109.662 L261.41,104.704 L255.246,104.704 L253.818,109.662 L250.512,109.662 L256.48,91.34 Z M256.004,102.154 L260.682,102.154 L260.04,99.912 C259.452,97.98 258.916,95.88 258.384,93.864 L258.274,93.864 C257.768,95.906 257.236,97.98 256.648,99.912 L256.004,102.154 Z M275.406,100.22 L270.534,91.34 L274.146,91.34 L276.164,95.402 C276.614,96.242 277.004,97.11 277.564,98.204 L277.676,98.204 C278.126,97.11 278.488,96.242 278.908,95.402 L280.842,91.34 L284.288,91.34 L279.414,100.36 L284.624,109.662 L281.01,109.662 L278.772,105.348 C278.292,104.394 277.844,103.47 277.284,102.352 L277.172,102.352 C276.698,103.47 276.278,104.394 275.828,105.348 L273.642,109.662 L270.198,109.662 L275.406,100.22 Z M289.378,100.418 C289.378,94.504 292.682,91.004 297.448,91.004 C302.236,91.004 305.542,94.504 305.542,100.418 C305.542,106.356 302.236,110 297.448,110 C292.682,110 289.378,106.356 289.378,100.418 Z M302.18,100.418 C302.18,96.326 300.33,93.832 297.448,93.832 C294.558,93.832 292.712,96.326 292.712,100.418 C292.712,104.536 294.558,107.168 297.448,107.168 C300.33,107.168 302.18,104.536 302.18,100.418 Z M312.842,91.34 L316.09,91.34 L316.09,106.918 L323.712,106.918 L323.712,109.66 L312.842,109.66 L312.842,91.34 Z M328.718,100.418 C328.718,94.504 332.022,91.004 336.786,91.004 C341.576,91.004 344.882,94.504 344.882,100.418 C344.882,106.356 341.576,110 336.786,110 C332.022,110 328.718,106.356 328.718,100.418 Z M341.52,100.418 C341.52,96.326 339.67,93.832 336.786,93.832 C333.898,93.832 332.052,96.326 332.052,100.418 C332.052,104.536 333.898,107.168 336.786,107.168 C339.67,107.168 341.52,104.536 341.52,100.418 Z M351.228,100.558 C351.228,94.562 355.012,91.004 359.884,91.004 C362.49,91.004 364.284,92.152 365.434,93.328 L363.696,95.432 C362.772,94.534 361.706,93.832 359.996,93.832 C356.75,93.832 354.562,96.354 354.562,100.472 C354.562,104.648 356.496,107.168 360.168,107.168 C361.202,107.168 362.21,106.89 362.798,106.356 L362.798,102.406 L359.324,102.406 L359.324,99.746 L365.712,99.746 L365.712,107.812 C364.478,109.044 362.352,109.996 359.858,109.996 C354.898,109.996 351.228,106.636 351.228,100.558 Z M376.458,102.856 L370.968,91.34 L374.442,91.34 L376.432,96.018 C376.962,97.392 377.466,98.652 378.056,100.05 L378.168,100.05 C378.756,98.652 379.318,97.392 379.85,96.018 L381.838,91.34 L385.23,91.34 L379.708,102.856 L379.708,109.662 L376.458,109.662 L376.458,102.856 Z" id="Combined-Shape" fill="#A6AFC0"></path>
                <g id="protocol-O" transform="translate(92.000000, 18.000000)">
                    <path d="M38.108,47.154 C35.65,46.182 33.54,44.958 31.694,43.574 C31.458,43.404 31.22,43.236 30.996,43.052 C30.668,42.792 30.36,42.514 30.048,42.238 C30.03,42.216 30.008,42.198 29.984,42.176 C21.652,34.65 20.586,22.874 24.702,12.482 C26.236,8.598 28.496,5.046 31.306,2.122 C30.182,2.474 29.048,2.878 27.914,3.37 C27.7,3.462 27.484,3.556 27.276,3.654 C27.048,3.756 26.85,3.878 26.628,3.984 C6.682,13.21 2.396,29.672 1.908,31.85 L19.814,24.102 L10.48,29.808 C10.596,33.644 11.41,37.55 13.05,41.338 C19.402,56.016 34.468,63.608 51.008,56.452 C60.116,52.51 65.666,45.814 67.776,38.146 C61.372,47.146 50.672,52.126 38.108,47.154" id="Fill-1" fill="#A3C93C"></path>
                    <path d="M36.597028,0.93200001 L33.461028,4.19600001 C30.943028,6.82000001 28.873028,10.064 27.481028,13.578 C25.765028,17.912 25.109028,22.238 25.445028,26.258 C26.673028,19.262 31.691028,13.244 40.227028,13.244 C49.463028,13.244 55.319028,21.35 55.319028,29.684 C55.319028,37.116 51.393028,44.104 43.627028,45.682 C45.065028,45.968 46.487028,46.118 47.881028,46.118 C54.669028,46.118 60.865028,42.664 65.321028,36.402 L69.111028,31.074 C69.131028,30.61 69.171028,30.154 69.171028,29.684 C69.171028,13.806 57.795028,0.74000001 40.117028,0.74000001 C38.909028,0.74000001 37.741028,0.81400001 36.597028,0.93200001" id="Fill-2" fill="#5AB146"></path>
                </g>
            </g>
        </g>
    </g>
</svg>