<?xml version="1.0" encoding="UTF-8"?>
<svg width="408px" height="101px" viewBox="0 0 408 101" version="1.1" xmlns="http://www.w3.org/2000/svg" xmlns:xlink="http://www.w3.org/1999/xlink">
    <!-- Generator: Sketch 50.2 (55047) - http://www.bohemiancoding.com/sketch -->
    <title>taxology</title>
    <desc>Created with Sketch.</desc>
    <defs></defs>
    <g id="Page-1" stroke="none" stroke-width="1" fill="none" fill-rule="evenodd">
        <g id="On-light" transform="translate(-132.000000, -128.000000)">
            <g id="taxology" transform="translate(132.000000, 127.000000)">
                <path d="M9.202,9.292 L21.402,7.992 L21.402,21.994 L35.004,21.994 L35.004,32.494 L21.304,32.494 L21.304,53.796 C21.304,58.496 23.902,60.796 27.702,60.796 C29.604,60.796 31.804,60.196 33.606,59.296 L37.004,69.696 C33.504,71.098 30.602,71.696 26.902,71.796 C16.202,72.198 9.202,66.096 9.202,53.796 L9.202,32.494 L0,32.494 L0,21.994 L9.202,21.994 L9.202,9.292 Z M39.4,46.494 C39.4,29.59 50.574,20.692 64.86,20.692 C64.94,20.692 65.022,20.694 65.102,20.694 C71.702,20.694 78.004,23.792 80.802,28.694 L81.202,21.894 L92.904,21.894 L92.904,71.196 L81.402,71.196 L80.802,63.996 C78.004,69.796 70.302,72.596 64.8,72.696 C50.202,72.796 39.4,63.796 39.4,46.494 Z M51.602,46.494 C51.602,55.896 58.102,61.496 66.204,61.496 C85.402,61.496 85.402,31.594 66.204,31.594 C58.102,31.594 51.602,37.096 51.602,46.494 Z M134.602,21.894 L149.202,21.894 L149.202,22.292 L133.002,46.194 L150.202,70.898 L150.202,71.196 L135.6,71.196 L124.902,54.696 L114.2,71.196 L99.6,71.196 L99.6,70.898 L116.802,46.194 L100.602,22.292 L100.602,21.894 L115.202,21.894 L124.902,38.594 L134.602,21.894 Z M221.798,71.196 L221.798,1.292 L233.898,1.292 L233.898,71.196 L221.798,71.196 Z M242.298,46.596 C242.298,32.494 252.1,20.894 267.798,20.894 C283.5,20.894 293.6,32.494 293.6,46.596 C293.6,60.796 283.902,72.296 267.9,72.296 C251.898,72.296 242.298,60.796 242.298,46.596 Z M254.5,46.596 C254.5,54.096 259,61.096 267.9,61.096 C276.798,61.096 281.298,54.096 281.298,46.596 C281.298,39.194 276.102,31.996 267.9,31.996 C259.098,31.996 254.5,39.194 254.5,46.596 Z M335.798,23.094 L340.702,16.894 L349.702,23.694 L344.198,30.694 C348,34.994 349.4,39.896 349.4,45.296 C349.4,51.396 347.098,59.992 339,63.696 C347.202,67.796 349.202,73.696 349.202,79.996 C349.202,93.598 338.798,102 324.5,102 C310.198,102 299.496,93.296 299.496,79.996 L311.598,79.996 C311.598,86.398 317.498,90.598 324.5,90.598 C331.5,90.598 336.998,86.796 336.998,79.996 C336.998,73.196 330.598,70.096 324.5,70.096 C309.096,70.096 299.496,60.696 299.496,45.296 C299.496,29.894 310.698,20.292 324.5,20.292 C328.398,20.292 332.398,20.792 335.798,23.094 Z M311.598,45.296 C311.598,53.896 317.398,58.996 324.5,58.996 C331.5,58.996 337.298,53.796 337.298,45.296 C337.298,36.794 331.5,31.392 324.5,31.392 C317.398,31.392 311.598,36.694 311.598,45.296 Z M394.398,21.894 L407.898,21.894 L377.794,91.796 L364.396,91.796 L373.594,70.398 L353.894,21.894 L368.096,21.894 L375.596,43.194 L380.294,57.096 L385.396,43.496 L394.398,21.894 Z" id="Combined-Shape" fill="#57616C"></path>
                <g id="taxology-O" transform="translate(144.000000, 16.000000)">
                    <path d="M38.198,47.032 C35.742,46.058 33.632,44.838 31.784,43.452 C31.548,43.282 31.31,43.114 31.086,42.932 C30.758,42.668 30.45,42.39 30.142,42.116 C30.12,42.096 30.096,42.074 30.076,42.054 C21.744,34.528 20.676,22.752 24.792,12.36 C26.328,8.476 28.588,4.926 31.396,2 C30.27,2.352 29.14,2.756 28.004,3.248 C27.79,3.34 27.576,3.436 27.366,3.532 C27.14,3.634 26.938,3.756 26.72,3.862 C6.77,13.088 2.486,29.55 2,31.728 L19.906,23.98 L10.572,29.686 C10.686,33.522 11.502,37.428 13.142,41.214 C19.494,55.894 34.56,63.484 51.096,56.33 C60.206,52.386 65.754,45.692 67.866,38.024 C61.462,47.024 50.762,52.006 38.198,47.032" id="Fill-21" fill="#6BA9D7"></path>
                    <path d="M36.5988772,0.93000001 L33.4628772,4.19600001 C30.9428772,6.82000001 28.8748772,10.064 27.4828772,13.578 C25.7668772,17.912 25.1088772,22.238 25.4448772,26.256 C26.6748772,19.26 31.6908772,13.244 40.2288772,13.244 C49.4648772,13.244 55.3208772,21.348 55.3208772,29.682 C55.3208772,37.116 51.3948772,44.104 43.6288772,45.68 C45.0668772,45.968 46.4888772,46.116 47.8828772,46.116 C54.6708772,46.116 60.8648772,42.664 65.3228772,36.402 L69.1148772,31.074 C69.1328772,30.61 69.1728772,30.154 69.1728772,29.682 C69.1728772,13.804 57.7968772,0.74000001 40.1168772,0.74000001 C38.9108772,0.74000001 37.7428772,0.81400001 36.5988772,0.93000001" id="Fill-22" fill="#447BB7"></path>
                </g>
            </g>
        </g>
    </g>
</svg>