<?xml version="1.0" encoding="UTF-8"?>
<svg width="408px" height="104px" viewBox="0 0 408 104" version="1.1" xmlns="http://www.w3.org/2000/svg" xmlns:xlink="http://www.w3.org/1999/xlink">
    <!-- Generator: Sketch 50.2 (55047) - http://www.bohemiancoding.com/sketch -->
    <title>taxology-white-sub</title>
    <desc>Created with Sketch.</desc>
    <defs></defs>
    <g id="Page-1" stroke="none" stroke-width="1" fill="none" fill-rule="evenodd">
        <g id="On-dark" transform="translate(-138.000000, -322.000000)">
            <g id="taxology-sub_white" transform="translate(138.000000, 322.000000)">
                <path d="M27.702,60.146 C29.602,60.146 31.804,59.546 33.604,58.646 L37.002,69.046 C33.502,70.446 30.602,71.046 26.902,71.146 C16.202,71.546 9.202,65.446 9.202,53.146 L9.202,31.846 L0,31.846 L0,21.344 L9.202,21.344 L9.202,8.644 L21.402,7.344 L21.402,21.344 L35.002,21.344 L35.002,31.846 L21.304,31.846 L21.304,53.146 C21.304,57.846 23.902,60.146 27.702,60.146 Z M80.802,27.64 L81.204,20.84 L92.906,20.84 L92.906,70.142 L81.402,70.142 L80.802,62.944 C78.002,68.74 70.302,71.542 64.8,71.642 C50.202,71.74 39.4,62.74 39.4,45.442 C39.4,28.442 50.702,19.538 65.1,19.64 C71.704,19.64 78.002,22.738 80.802,27.64 Z M66.204,60.444 C85.402,60.444 85.402,30.542 66.204,30.542 C58.1,30.542 51.6,36.042 51.6,45.442 C51.6,54.842 58.1,60.444 66.204,60.444 Z M149.204,21.24 L133.002,45.14 L150.204,69.844 L150.204,70.142 L135.6,70.142 L124.902,53.642 L114.202,70.142 L99.6,70.142 L99.6,69.844 L116.8,45.14 L100.6,21.24 L100.6,20.84 L115.202,20.84 L124.902,37.54 L134.6,20.84 L149.204,20.84 L149.204,21.24 Z M221.798,70.142 L221.798,0.238 L233.898,0.238 L233.898,70.142 L221.798,70.142 Z M267.798,19.838 C283.5,19.838 293.602,31.442 293.602,45.542 C293.602,59.742 283.902,71.242 267.9,71.242 C251.898,71.242 242.298,59.742 242.298,45.542 C242.298,31.442 252.1,19.838 267.798,19.838 Z M267.9,60.042 C276.798,60.042 281.298,53.042 281.298,45.542 C281.298,38.14 276.102,30.942 267.9,30.942 C259.1,30.942 254.5,38.14 254.5,45.542 C254.5,53.042 259,60.042 267.9,60.042 Z M340.7,15.84 L349.702,22.64 L344.2,29.64 C348,33.942 349.4,38.842 349.4,44.24 C349.4,50.342 347.1,58.942 339,62.642 C347.2,66.74 349.2,72.642 349.2,78.944 C349.2,92.544 338.798,100.946 324.5,100.946 C310.2,100.946 299.496,92.242 299.496,78.944 L311.598,78.944 C311.598,85.344 317.498,89.544 324.5,89.544 C331.5,89.544 337,85.742 337,78.944 C337,72.142 330.598,69.042 324.5,69.042 C309.098,69.042 299.496,59.642 299.496,44.24 C299.496,28.84 310.7,19.238 324.5,19.238 C328.396,19.238 332.396,19.738 335.798,22.042 L340.7,15.84 Z M324.5,57.942 C331.5,57.942 337.298,52.74 337.298,44.24 C337.298,35.738 331.5,30.34 324.5,30.34 C317.396,30.34 311.598,35.64 311.598,44.24 C311.598,52.842 317.396,57.942 324.5,57.942 Z M394.398,20.84 L407.898,20.84 L377.794,90.744 L364.396,90.744 L373.596,69.344 L353.892,20.84 L368.096,20.84 L375.596,42.138 L380.294,56.042 L385.396,42.442 L394.398,20.84 Z" id="Combined-Shape" fill="#FFFFFE"></path>
                <path d="M7.39,88.324 L2.172,88.324 L2.172,86.488 L14.782,86.488 L14.782,88.324 L9.566,88.324 L9.566,103.686 L7.39,103.686 L7.39,88.324 Z M21.124,86.488 L23.326,86.488 L23.326,93.7 L31.322,93.7 L31.322,86.488 L33.498,86.488 L33.498,103.686 L31.322,103.686 L31.322,95.586 L23.326,95.586 L23.326,103.686 L21.124,103.686 L21.124,86.488 Z M41.49,86.488 L51.4,86.488 L51.4,88.324 L43.692,88.324 L43.692,93.722 L50.194,93.722 L50.194,95.586 L43.692,95.586 L43.692,101.824 L51.662,101.824 L51.662,103.686 L41.49,103.686 L41.49,86.488 Z M67.256,86.488 L77.192,86.488 L77.192,88.324 L69.458,88.324 L69.458,94.144 L76.012,94.144 L76.012,95.978 L69.458,95.978 L69.458,103.686 L67.256,103.686 L67.256,86.488 Z M83.404,86.488 L85.606,86.488 L85.606,96.632 C85.606,100.776 87.362,102.086 89.59,102.086 C91.872,102.086 93.68,100.776 93.68,96.632 L93.68,86.488 L95.778,86.488 L95.778,96.582 C95.778,102.114 93.104,104 89.59,104 C86.078,104 83.404,102.114 83.404,96.582 L83.404,86.488 Z M107.258,88.324 L102.042,88.324 L102.042,86.488 L114.65,86.488 L114.65,88.324 L109.434,88.324 L109.434,103.686 L107.258,103.686 L107.258,88.324 Z M120.914,86.488 L123.116,86.488 L123.116,96.632 C123.116,100.776 124.872,102.086 127.1,102.086 C129.38,102.086 131.19,100.776 131.19,96.632 L131.19,86.488 L133.288,86.488 L133.288,96.582 C133.288,102.114 130.614,104 127.1,104 C123.588,104 120.914,102.114 120.914,96.582 L120.914,86.488 Z M150.614,103.686 L146.472,96.424 L143.378,96.424 L143.378,103.686 L141.176,103.686 L141.176,86.488 L146.576,86.488 C150.062,86.488 152.58,87.746 152.58,91.312 C152.58,93.986 151.058,95.586 148.726,96.188 L153.104,103.686 L150.614,103.686 Z M143.378,94.64 L146.262,94.64 C148.936,94.64 150.404,93.538 150.404,91.312 C150.404,89.058 148.936,88.246 146.262,88.246 L143.378,88.246 L143.378,94.64 Z M159.682,86.488 L169.59,86.488 L169.59,88.324 L161.884,88.324 L161.884,93.722 L168.386,93.722 L168.386,95.586 L161.884,95.586 L161.884,101.824 L169.854,101.824 L169.854,103.686 L159.682,103.686 L159.682,86.488 Z M184.478,95.008 C184.478,89.504 187.518,86.174 191.844,86.174 C196.144,86.174 199.184,89.53 199.184,95.008 C199.184,100.538 196.144,104 191.844,104 C187.518,104 184.478,100.538 184.478,95.008 Z M196.93,95.008 C196.93,90.734 194.912,88.088 191.844,88.088 C188.752,88.088 186.732,90.734 186.732,95.008 C186.732,99.308 188.752,102.086 191.844,102.086 C194.912,102.086 196.93,99.308 196.93,95.008 Z M206.156,86.488 L216.092,86.488 L216.092,88.324 L208.358,88.324 L208.358,94.144 L214.912,94.144 L214.912,95.978 L208.358,95.978 L208.358,103.686 L206.156,103.686 L206.156,86.488 Z M235.412,89.11 L230.456,89.11 L230.456,86.542 L243.38,86.542 L243.38,89.11 L238.452,89.11 L238.452,103.686 L235.412,103.686 L235.412,89.11 Z M256.486,99.046 L250.744,99.046 L249.408,103.686 L246.29,103.686 L251.898,86.542 L255.462,86.542 L261.048,103.686 L257.822,103.686 L256.486,99.046 Z M255.804,96.66 L255.202,94.562 C254.678,92.754 254.154,90.788 253.654,88.9 L253.548,88.9 C253.078,90.814 252.58,92.754 252.03,94.562 L251.428,96.66 L255.804,96.66 Z M269.486,94.852 L264.924,86.542 L268.306,86.542 L270.22,90.344 C270.614,91.128 270.98,91.942 271.506,92.964 L271.612,92.964 C272.03,91.942 272.396,91.128 272.764,90.344 L274.572,86.542 L277.796,86.542 L273.236,94.982 L278.112,103.686 L274.728,103.686 L272.63,99.648 C272.186,98.758 271.768,97.892 271.27,96.844 L271.164,96.844 C270.718,97.892 270.298,98.758 269.88,99.648 L267.862,103.686 L264.636,103.686 L269.486,94.852 Z" id="Combined-Shape" fill="#A6AFC0"></path>
                <g id="taxology-O" transform="translate(144.000000, 16.000000)">
                    <path d="M38.198,47.032 C35.742,46.058 33.632,44.838 31.784,43.452 C31.548,43.282 31.31,43.114 31.086,42.932 C30.758,42.668 30.45,42.39 30.142,42.116 C30.12,42.096 30.096,42.074 30.076,42.054 C21.744,34.528 20.676,22.752 24.792,12.36 C26.328,8.476 28.588,4.926 31.396,2 C30.27,2.352 29.14,2.756 28.004,3.248 C27.79,3.34 27.576,3.436 27.366,3.532 C27.14,3.634 26.938,3.756 26.72,3.862 C6.77,13.088 2.486,29.55 2,31.728 L19.906,23.98 L10.572,29.686 C10.686,33.522 11.502,37.428 13.142,41.214 C19.494,55.894 34.56,63.484 51.096,56.33 C60.206,52.386 65.754,45.692 67.866,38.024 C61.462,47.024 50.762,52.006 38.198,47.032" id="Fill-21" fill="#6BA9D7"></path>
                    <path d="M36.5988772,0.93000001 L33.4628772,4.19600001 C30.9428772,6.82000001 28.8748772,10.064 27.4828772,13.578 C25.7668772,17.912 25.1088772,22.238 25.4448772,26.256 C26.6748772,19.26 31.6908772,13.244 40.2288772,13.244 C49.4648772,13.244 55.3208772,21.348 55.3208772,29.682 C55.3208772,37.116 51.3948772,44.104 43.6288772,45.68 C45.0668772,45.968 46.4888772,46.116 47.8828772,46.116 C54.6708772,46.116 60.8648772,42.664 65.3228772,36.402 L69.1148772,31.074 C69.1328772,30.61 69.1728772,30.154 69.1728772,29.682 C69.1728772,13.804 57.7968772,0.74000001 40.1168772,0.74000001 C38.9108772,0.74000001 37.7428772,0.81400001 36.5988772,0.93000001" id="Fill-22" fill="#447BB7"></path>
                </g>
            </g>
        </g>
    </g>
</svg>