<?xml version="1.0" encoding="UTF-8"?>
<svg width="408px" height="101px" viewBox="0 0 408 101" version="1.1" xmlns="http://www.w3.org/2000/svg" xmlns:xlink="http://www.w3.org/1999/xlink">
    <!-- Generator: Sketch 50.2 (55047) - http://www.bohemiancoding.com/sketch -->
    <title>taxology-white</title>
    <desc>Created with Sketch.</desc>
    <defs></defs>
    <g id="Page-1" stroke="none" stroke-width="1" fill="none" fill-rule="evenodd">
        <g id="On-dark" transform="translate(-138.000000, -130.000000)">
            <g id="taxology_white" transform="translate(138.000000, 129.000000)">
                <path d="M27.702,61.202 C29.602,61.202 31.804,60.602 33.604,59.702 L37.002,70.102 C33.502,71.5 30.602,72.102 26.902,72.202 C16.202,72.602 9.202,66.5 9.202,54.202 L9.202,32.9 L0,32.9 L0,22.398 L9.202,22.398 L9.202,9.7 L21.402,8.398 L21.402,22.398 L35.002,22.398 L35.002,32.9 L21.304,32.9 L21.304,54.202 C21.304,58.9 23.902,61.202 27.702,61.202 Z M80.802,28.696 L81.204,21.894 L92.906,21.894 L92.906,71.198 L81.402,71.198 L80.802,63.998 C78.002,69.794 70.302,72.598 64.8,72.698 C50.202,72.794 39.4,63.794 39.4,46.496 C39.4,29.496 50.702,20.594 65.1,20.696 C71.704,20.696 78.002,23.792 80.802,28.696 Z M66.204,61.498 C85.402,61.498 85.402,31.596 66.204,31.596 C58.1,31.596 51.6,37.096 51.6,46.496 C51.6,55.896 58.1,61.498 66.204,61.498 Z M149.204,22.294 L133.002,46.196 L150.204,70.898 L150.204,71.198 L135.6,71.198 L124.902,54.698 L114.202,71.198 L99.6,71.198 L99.6,70.898 L116.8,46.196 L100.6,22.294 L100.6,21.894 L115.202,21.894 L124.902,38.594 L134.6,21.894 L149.204,21.894 L149.204,22.294 Z M221.798,71.196 L221.798,1.292 L233.898,1.292 L233.898,71.196 L221.798,71.196 Z M267.798,20.892 C283.5,20.892 293.602,32.496 293.602,46.596 C293.602,60.798 283.902,72.296 267.9,72.296 C251.898,72.296 242.298,60.798 242.298,46.596 C242.298,32.496 252.1,20.892 267.798,20.892 Z M267.9,61.098 C276.798,61.098 281.298,54.098 281.298,46.596 C281.298,39.196 276.102,31.996 267.9,31.996 C259.1,31.996 254.5,39.196 254.5,46.596 C254.5,54.098 259,61.098 267.9,61.098 Z M340.7,16.894 L349.702,23.696 L344.2,30.696 C348,34.996 349.4,39.896 349.4,45.294 C349.4,51.396 347.1,59.996 339,63.698 C347.2,67.794 349.2,73.698 349.2,79.998 C349.2,93.6 338.798,102 324.5,102 C310.2,102 299.496,93.296 299.496,79.998 L311.598,79.998 C311.598,86.398 317.498,90.6 324.5,90.6 C331.5,90.6 337,86.796 337,79.998 C337,73.198 330.598,70.098 324.5,70.098 C309.098,70.098 299.496,60.698 299.496,45.294 C299.496,29.894 310.7,20.292 324.5,20.292 C328.396,20.292 332.396,20.792 335.798,23.096 L340.7,16.894 Z M324.5,58.996 C331.5,58.996 337.298,53.794 337.298,45.294 C337.298,36.792 331.5,31.394 324.5,31.394 C317.396,31.394 311.598,36.696 311.598,45.294 C311.598,53.896 317.396,58.996 324.5,58.996 Z M394.398,21.894 L407.898,21.894 L377.794,91.798 L364.396,91.798 L373.596,70.398 L353.892,21.894 L368.096,21.894 L375.596,43.194 L380.294,57.098 L385.396,43.496 L394.398,21.894 Z" id="Combined-Shape" fill="#FFFFFE"></path>
                <g id="taxology-O" transform="translate(144.000000, 16.000000)">
                    <path d="M38.198,47.032 C35.742,46.058 33.632,44.838 31.784,43.452 C31.548,43.282 31.31,43.114 31.086,42.932 C30.758,42.668 30.45,42.39 30.142,42.116 C30.12,42.096 30.096,42.074 30.076,42.054 C21.744,34.528 20.676,22.752 24.792,12.36 C26.328,8.476 28.588,4.926 31.396,2 C30.27,2.352 29.14,2.756 28.004,3.248 C27.79,3.34 27.576,3.436 27.366,3.532 C27.14,3.634 26.938,3.756 26.72,3.862 C6.77,13.088 2.486,29.55 2,31.728 L19.906,23.98 L10.572,29.686 C10.686,33.522 11.502,37.428 13.142,41.214 C19.494,55.894 34.56,63.484 51.096,56.33 C60.206,52.386 65.754,45.692 67.866,38.024 C61.462,47.024 50.762,52.006 38.198,47.032" id="Fill-21" fill="#6BA9D7"></path>
                    <path d="M36.5988772,0.93000001 L33.4628772,4.19600001 C30.9428772,6.82000001 28.8748772,10.064 27.4828772,13.578 C25.7668772,17.912 25.1088772,22.238 25.4448772,26.256 C26.6748772,19.26 31.6908772,13.244 40.2288772,13.244 C49.4648772,13.244 55.3208772,21.348 55.3208772,29.682 C55.3208772,37.116 51.3948772,44.104 43.6288772,45.68 C45.0668772,45.968 46.4888772,46.116 47.8828772,46.116 C54.6708772,46.116 60.8648772,42.664 65.3228772,36.402 L69.1148772,31.074 C69.1328772,30.61 69.1728772,30.154 69.1728772,29.682 C69.1728772,13.804 57.7968772,0.74000001 40.1168772,0.74000001 C38.9108772,0.74000001 37.7428772,0.81400001 36.5988772,0.93000001" id="Fill-22" fill="#447BB7"></path>
                </g>
            </g>
        </g>
    </g>
</svg>