<?xml version="1.0" encoding="UTF-8"?>
<svg width="408px" height="109px" viewBox="0 0 408 109" version="1.1" xmlns="http://www.w3.org/2000/svg" xmlns:xlink="http://www.w3.org/1999/xlink">
    <!-- Generator: Sketch 50.2 (55047) - http://www.bohemiancoding.com/sketch -->
    <title>taxology-sub</title>
    <desc>Created with Sketch.</desc>
    <defs></defs>
    <g id="Page-1" stroke="none" stroke-width="1" fill="none" fill-rule="evenodd">
        <g id="On-light" transform="translate(-132.000000, -307.000000)">
            <g id="taxology-sub" transform="translate(132.000000, 306.000000)">
                <path d="M9.202,9.868 L21.402,8.566 L21.402,22.568 L35.004,22.568 L35.004,33.068 L21.304,33.068 L21.304,54.37 C21.304,59.07 23.902,61.37 27.702,61.37 C29.604,61.37 31.804,60.77 33.606,59.87 L37.004,70.27 C33.504,71.672 30.602,72.27 26.902,72.37 C16.202,72.772 9.202,66.67 9.202,54.37 L9.202,33.068 L0,33.068 L0,22.568 L9.202,22.568 L9.202,9.868 Z M39.4,47.068 C39.4,30.164 50.574,21.266 64.86,21.266 C64.94,21.266 65.022,21.268 65.102,21.268 C71.702,21.268 78.004,24.368 80.802,29.268 L81.202,22.468 L92.904,22.468 L92.904,71.77 L81.402,71.77 L80.802,64.57 C78.004,70.37 70.302,73.17 64.8,73.27 C50.202,73.37 39.4,64.37 39.4,47.068 Z M51.602,47.068 C51.602,56.47 58.102,62.07 66.204,62.07 C85.402,62.07 85.402,32.168 66.204,32.168 C58.102,32.168 51.602,37.67 51.602,47.068 Z M134.602,22.468 L149.202,22.468 L149.202,22.868 L133.002,46.768 L150.202,71.472 L150.202,71.77 L135.6,71.77 L124.902,55.27 L114.2,71.77 L99.6,71.77 L99.6,71.472 L116.802,46.768 L100.602,22.868 L100.602,22.468 L115.202,22.468 L124.902,39.168 L134.602,22.468 Z M221.798,71.77 L221.798,1.866 L233.898,1.866 L233.898,71.77 L221.798,71.77 Z M242.298,47.17 C242.298,33.068 252.1,21.468 267.798,21.468 C283.5,21.468 293.6,33.068 293.6,47.17 C293.6,61.37 283.902,72.87 267.9,72.87 C251.898,72.87 242.298,61.37 242.298,47.17 Z M254.5,47.17 C254.5,54.67 259,61.67 267.9,61.67 C276.798,61.67 281.298,54.67 281.298,47.17 C281.298,39.768 276.102,32.57 267.9,32.57 C259.098,32.57 254.5,39.768 254.5,47.17 Z M335.798,23.668 L340.702,17.468 L349.702,24.268 L344.198,31.268 C348,35.568 349.4,40.47 349.4,45.87 C349.4,51.97 347.098,60.566 339,64.27 C347.202,68.37 349.202,74.27 349.202,80.57 C349.202,94.172 338.798,102.574 324.5,102.574 C310.198,102.574 299.496,93.87 299.496,80.57 L311.598,80.57 C311.598,86.972 317.498,91.172 324.5,91.172 C331.5,91.172 336.998,87.37 336.998,80.57 C336.998,73.77 330.598,70.67 324.5,70.67 C309.096,70.67 299.496,61.27 299.496,45.87 C299.496,30.468 310.698,20.868 324.5,20.868 C328.398,20.868 332.398,21.368 335.798,23.668 Z M311.598,45.87 C311.598,54.47 317.398,59.57 324.5,59.57 C331.5,59.57 337.298,54.37 337.298,45.87 C337.298,37.368 331.5,31.966 324.5,31.966 C317.398,31.966 311.598,37.268 311.598,45.87 Z M394.398,22.468 L407.898,22.468 L377.794,92.37 L364.396,92.37 L373.594,70.972 L353.894,22.468 L368.096,22.468 L375.596,43.768 L380.294,57.67 L385.396,44.07 L394.398,22.468 Z" id="Combined-Shape" fill="#57616C"></path>
                <path d="M7.39,94.324 L2.172,94.324 L2.172,92.488 L14.782,92.488 L14.782,94.324 L9.566,94.324 L9.566,109.686 L7.39,109.686 L7.39,94.324 Z M21.124,92.488 L23.326,92.488 L23.326,99.7 L31.322,99.7 L31.322,92.488 L33.498,92.488 L33.498,109.686 L31.322,109.686 L31.322,101.586 L23.326,101.586 L23.326,109.686 L21.124,109.686 L21.124,92.488 Z M41.49,92.488 L51.4,92.488 L51.4,94.324 L43.692,94.324 L43.692,99.722 L50.194,99.722 L50.194,101.586 L43.692,101.586 L43.692,107.824 L51.662,107.824 L51.662,109.686 L41.49,109.686 L41.49,92.488 Z M67.256,92.488 L77.192,92.488 L77.192,94.324 L69.458,94.324 L69.458,100.144 L76.012,100.144 L76.012,101.978 L69.458,101.978 L69.458,109.686 L67.256,109.686 L67.256,92.488 Z M83.404,92.488 L85.606,92.488 L85.606,102.632 C85.606,106.776 87.362,108.086 89.59,108.086 C91.872,108.086 93.68,106.776 93.68,102.632 L93.68,92.488 L95.778,92.488 L95.778,102.582 C95.778,108.114 93.104,110 89.59,110 C86.078,110 83.404,108.114 83.404,102.582 L83.404,92.488 Z M107.258,94.324 L102.042,94.324 L102.042,92.488 L114.65,92.488 L114.65,94.324 L109.434,94.324 L109.434,109.686 L107.258,109.686 L107.258,94.324 Z M120.914,92.488 L123.116,92.488 L123.116,102.632 C123.116,106.776 124.872,108.086 127.1,108.086 C129.38,108.086 131.19,106.776 131.19,102.632 L131.19,92.488 L133.288,92.488 L133.288,102.582 C133.288,108.114 130.614,110 127.1,110 C123.588,110 120.914,108.114 120.914,102.582 L120.914,92.488 Z M150.614,109.686 L146.472,102.424 L143.378,102.424 L143.378,109.686 L141.176,109.686 L141.176,92.488 L146.576,92.488 C150.062,92.488 152.58,93.746 152.58,97.312 C152.58,99.986 151.058,101.586 148.726,102.188 L153.104,109.686 L150.614,109.686 Z M143.378,100.64 L146.262,100.64 C148.936,100.64 150.404,99.538 150.404,97.312 C150.404,95.058 148.936,94.246 146.262,94.246 L143.378,94.246 L143.378,100.64 Z M159.682,92.488 L169.59,92.488 L169.59,94.324 L161.884,94.324 L161.884,99.722 L168.386,99.722 L168.386,101.586 L161.884,101.586 L161.884,107.824 L169.854,107.824 L169.854,109.686 L159.682,109.686 L159.682,92.488 Z M184.478,101.008 C184.478,95.504 187.518,92.174 191.844,92.174 C196.144,92.174 199.184,95.53 199.184,101.008 C199.184,106.538 196.144,110 191.844,110 C187.518,110 184.478,106.538 184.478,101.008 Z M196.93,101.008 C196.93,96.734 194.912,94.088 191.844,94.088 C188.752,94.088 186.732,96.734 186.732,101.008 C186.732,105.308 188.752,108.086 191.844,108.086 C194.912,108.086 196.93,105.308 196.93,101.008 Z M206.156,92.488 L216.092,92.488 L216.092,94.324 L208.358,94.324 L208.358,100.144 L214.912,100.144 L214.912,101.978 L208.358,101.978 L208.358,109.686 L206.156,109.686 L206.156,92.488 Z M235.412,95.11 L230.456,95.11 L230.456,92.54 L243.38,92.54 L243.38,95.11 L238.452,95.11 L238.452,109.686 L235.412,109.686 L235.412,95.11 Z M256.486,105.046 L250.744,105.046 L249.408,109.686 L246.29,109.686 L251.898,92.54 L255.462,92.54 L261.048,109.686 L257.822,109.686 L256.486,105.046 Z M255.804,102.66 L255.202,100.562 C254.678,98.754 254.154,96.788 253.654,94.9 L253.548,94.9 C253.078,96.814 252.58,98.754 252.03,100.562 L251.428,102.66 L255.804,102.66 Z M269.486,100.852 L264.924,92.54 L268.306,92.54 L270.22,96.344 C270.614,97.128 270.98,97.942 271.506,98.964 L271.612,98.964 C272.03,97.942 272.396,97.128 272.764,96.344 L274.572,92.54 L277.796,92.54 L273.236,100.982 L278.112,109.686 L274.728,109.686 L272.63,105.648 C272.186,104.758 271.768,103.892 271.27,102.844 L271.164,102.844 C270.718,103.892 270.298,104.758 269.88,105.648 L267.862,109.686 L264.636,109.686 L269.486,100.852 Z" id="Combined-Shape" fill="#A6AFC0"></path>
                <g id="taxology-O" transform="translate(144.000000, 16.000000)">
                    <path d="M38.198,47.032 C35.742,46.058 33.632,44.838 31.784,43.452 C31.548,43.282 31.31,43.114 31.086,42.932 C30.758,42.668 30.45,42.39 30.142,42.116 C30.12,42.096 30.096,42.074 30.076,42.054 C21.744,34.528 20.676,22.752 24.792,12.36 C26.328,8.476 28.588,4.926 31.396,2 C30.27,2.352 29.14,2.756 28.004,3.248 C27.79,3.34 27.576,3.436 27.366,3.532 C27.14,3.634 26.938,3.756 26.72,3.862 C6.77,13.088 2.486,29.55 2,31.728 L19.906,23.98 L10.572,29.686 C10.686,33.522 11.502,37.428 13.142,41.214 C19.494,55.894 34.56,63.484 51.096,56.33 C60.206,52.386 65.754,45.692 67.866,38.024 C61.462,47.024 50.762,52.006 38.198,47.032" id="Fill-21" fill="#6BA9D7"></path>
                    <path d="M36.5988772,0.93000001 L33.4628772,4.19600001 C30.9428772,6.82000001 28.8748772,10.064 27.4828772,13.578 C25.7668772,17.912 25.1088772,22.238 25.4448772,26.256 C26.6748772,19.26 31.6908772,13.244 40.2288772,13.244 C49.4648772,13.244 55.3208772,21.348 55.3208772,29.682 C55.3208772,37.116 51.3948772,44.104 43.6288772,45.68 C45.0668772,45.968 46.4888772,46.116 47.8828772,46.116 C54.6708772,46.116 60.8648772,42.664 65.3228772,36.402 L69.1148772,31.074 C69.1328772,30.61 69.1728772,30.154 69.1728772,29.682 C69.1728772,13.804 57.7968772,0.74000001 40.1168772,0.74000001 C38.9108772,0.74000001 37.7428772,0.81400001 36.5988772,0.93000001" id="Fill-22" fill="#447BB7"></path>
                </g>
            </g>
        </g>
    </g>
</svg>