<?xml version="1.0" encoding="UTF-8" standalone="no"?>
<svg width="416px" height="276px" viewBox="0 0 416 276" version="1.1" xmlns="http://www.w3.org/2000/svg" xmlns:xlink="http://www.w3.org/1999/xlink">
    <!-- Generator: Sketch 39.1 (31720) - http://www.bohemiancoding.com/sketch -->
    <title>feature-1</title>
    <desc>Created with Sketch.</desc>
    <defs>
        <rect id="path-1" x="0" y="0" width="416" height="276" rx="12"></rect>
        <mask id="mask-2" maskContentUnits="userSpaceOnUse" maskUnits="objectBoundingBox" x="0" y="0" width="416" height="276" fill="white">
            <use xlink:href="#path-1"></use>
        </mask>
        <rect id="path-3" x="25.9585253" y="0" width="168.041475" height="35" rx="4.5"></rect>
        <mask id="mask-4" maskContentUnits="userSpaceOnUse" maskUnits="objectBoundingBox" x="0" y="0" width="168.041475" height="35" fill="white">
            <use xlink:href="#path-3"></use>
        </mask>
    </defs>
    <g id="Home" stroke="none" stroke-width="1" fill="none" fill-rule="evenodd">
        <g id="taxology-protocol-marketing-website" transform="translate(-782.000000, -2472.000000)">
            <g id="feature-1" transform="translate(782.000000, 2472.000000)">
                <use id="Rectangle-23" stroke="#C9D4DD" mask="url(#mask-2)" stroke-width="4" stroke-dasharray="8,8" fill-opacity="0.298120471" fill="#ECF1F4" xlink:href="#path-1"></use>
                <path d="M68.738,173.252 C69.851,173.252 70.901,172.643 71.657,171.887 L71.741,171.887 L71.909,173 L73.904,173 L73.904,158.174 L71.489,158.174 L71.489,161.912 L71.573,163.571 C70.775,162.878 70.04,162.437 68.864,162.437 C66.617,162.437 64.496,164.495 64.496,167.855 C64.496,171.257 66.155,173.252 68.738,173.252 L68.738,173.252 Z M69.326,171.257 C67.835,171.257 66.995,170.06 66.995,167.834 C66.995,165.671 68.066,164.432 69.389,164.432 C70.082,164.432 70.775,164.663 71.489,165.293 L71.489,170.102 C70.796,170.9 70.124,171.257 69.326,171.257 L69.326,171.257 Z M76.97,173 L79.385,173 L79.385,166.7 C80.015,165.146 81.002,164.579 81.821,164.579 C82.262,164.579 82.535,164.642 82.892,164.747 L83.312,162.647 C82.997,162.5 82.661,162.437 82.136,162.437 C81.044,162.437 79.952,163.172 79.217,164.516 L79.133,164.516 L78.965,162.689 L76.97,162.689 L76.97,173 Z M86.756,173.252 C87.974,173.252 89.024,172.643 89.948,171.866 L90.032,171.866 L90.2,173 L92.195,173 L92.195,166.889 C92.195,164.012 90.914,162.437 88.352,162.437 C86.714,162.437 85.244,163.067 84.11,163.781 L84.992,165.398 C85.916,164.852 86.882,164.39 87.89,164.39 C89.297,164.39 89.738,165.314 89.78,166.406 C85.538,166.868 83.711,168.023 83.711,170.228 C83.711,172.034 84.95,173.252 86.756,173.252 L86.756,173.252 Z M87.533,171.362 C86.672,171.362 86.042,170.963 86.042,170.039 C86.042,169.01 86.966,168.275 89.78,167.918 L89.78,170.228 C89.003,170.942 88.373,171.362 87.533,171.362 L87.533,171.362 Z M98.684,177.557 C102.044,177.557 104.186,175.961 104.186,173.924 C104.186,172.139 102.884,171.383 100.406,171.383 L98.579,171.383 C97.319,171.383 96.899,171.026 96.899,170.438 C96.899,169.976 97.088,169.724 97.403,169.451 C97.865,169.64 98.369,169.724 98.81,169.724 C100.994,169.724 102.716,168.506 102.716,166.217 C102.716,165.503 102.464,164.873 102.128,164.474 L104.018,164.474 L104.018,162.689 L100.322,162.689 C99.902,162.542 99.377,162.437 98.81,162.437 C96.647,162.437 94.736,163.76 94.736,166.133 C94.736,167.351 95.387,168.338 96.08,168.863 L96.08,168.947 C95.492,169.367 94.946,170.06 94.946,170.858 C94.946,171.698 95.345,172.244 95.87,172.58 L95.87,172.664 C94.925,173.252 94.4,174.008 94.4,174.869 C94.4,176.675 96.227,177.557 98.684,177.557 L98.684,177.557 Z M98.81,168.212 C97.802,168.212 97.004,167.456 97.004,166.133 C97.004,164.831 97.802,164.096 98.81,164.096 C99.818,164.096 100.595,164.852 100.595,166.133 C100.595,167.456 99.797,168.212 98.81,168.212 L98.81,168.212 Z M99.062,175.982 C97.424,175.982 96.416,175.436 96.416,174.512 C96.416,174.029 96.668,173.567 97.214,173.147 C97.613,173.252 98.054,173.294 98.621,173.294 L100.028,173.294 C101.204,173.294 101.855,173.525 101.855,174.323 C101.855,175.205 100.721,175.982 99.062,175.982 L99.062,175.982 Z M110.906,177.242 C113.153,177.242 114.224,175.793 115.085,173.462 L118.823,162.689 L116.492,162.689 L114.938,167.75 C114.686,168.674 114.413,169.703 114.161,170.648 L114.077,170.648 C113.762,169.682 113.468,168.653 113.174,167.75 L111.389,162.689 L108.932,162.689 L112.985,172.874 L112.796,173.525 C112.46,174.554 111.83,175.289 110.738,175.289 C110.486,175.289 110.192,175.205 110.003,175.142 L109.562,177.032 C109.94,177.158 110.339,177.242 110.906,177.242 L110.906,177.242 Z M124.703,173.252 C127.286,173.252 129.617,171.278 129.617,167.855 C129.617,164.411 127.286,162.437 124.703,162.437 C122.141,162.437 119.81,164.411 119.81,167.855 C119.81,171.278 122.141,173.252 124.703,173.252 L124.703,173.252 Z M124.703,171.278 C123.191,171.278 122.288,169.913 122.288,167.855 C122.288,165.776 123.191,164.411 124.703,164.411 C126.215,164.411 127.139,165.776 127.139,167.855 C127.139,169.913 126.215,171.278 124.703,171.278 L124.703,171.278 Z M135.077,173.252 C136.484,173.252 137.492,172.559 138.395,171.488 L138.458,171.488 L138.647,173 L140.621,173 L140.621,162.689 L138.206,162.689 L138.206,169.745 C137.429,170.753 136.82,171.173 135.917,171.173 C134.804,171.173 134.321,170.543 134.321,168.842 L134.321,162.689 L131.906,162.689 L131.906,169.157 C131.906,171.761 132.872,173.252 135.077,173.252 L135.077,173.252 Z M143.687,173 L146.102,173 L146.102,166.7 C146.732,165.146 147.719,164.579 148.538,164.579 C148.979,164.579 149.252,164.642 149.609,164.747 L150.029,162.647 C149.714,162.5 149.378,162.437 148.853,162.437 C147.761,162.437 146.669,163.172 145.934,164.516 L145.85,164.516 L145.682,162.689 L143.687,162.689 L143.687,173 Z M161.411,173.252 C163.175,173.252 164.624,172.538 165.737,171.257 L164.435,169.724 C163.658,170.564 162.713,171.131 161.495,171.131 C159.185,171.131 157.715,169.241 157.715,166.112 C157.715,163.025 159.311,161.135 161.558,161.135 C162.629,161.135 163.448,161.618 164.162,162.332 L165.464,160.757 C164.603,159.833 163.217,159.014 161.495,159.014 C158.03,159.014 155.216,161.681 155.216,166.175 C155.216,170.732 157.946,173.252 161.411,173.252 L161.411,173.252 Z M171.491,173.252 C174.578,173.252 176.426,171.404 176.426,169.178 C176.426,167.183 175.271,166.154 173.654,165.461 L171.785,164.684 C170.651,164.222 169.601,163.823 169.601,162.752 C169.601,161.744 170.462,161.135 171.764,161.135 C172.94,161.135 173.864,161.576 174.746,162.311 L175.985,160.757 C174.914,159.686 173.36,159.014 171.764,159.014 C169.076,159.014 167.144,160.694 167.144,162.878 C167.144,164.894 168.572,165.965 169.916,166.532 L171.806,167.351 C173.045,167.876 173.927,168.233 173.927,169.367 C173.927,170.438 173.087,171.131 171.533,171.131 C170.273,171.131 168.95,170.501 167.963,169.577 L166.535,171.236 C167.837,172.517 169.643,173.252 171.491,173.252 L171.491,173.252 Z M181.382,173 L184.259,173 L188.522,159.266 L186.023,159.266 L184.112,166.175 C183.692,167.729 183.377,169.073 182.915,170.648 L182.831,170.648 C182.369,169.073 182.054,167.729 181.613,166.175 L179.681,159.266 L177.098,159.266 L181.382,173 Z M198.392,173.252 C200.975,173.252 203.306,171.278 203.306,167.855 C203.306,164.411 200.975,162.437 198.392,162.437 C195.83,162.437 193.499,164.411 193.499,167.855 C193.499,171.278 195.83,173.252 198.392,173.252 L198.392,173.252 Z M198.392,171.278 C196.88,171.278 195.977,169.913 195.977,167.855 C195.977,165.776 196.88,164.411 198.392,164.411 C199.904,164.411 200.828,165.776 200.828,167.855 C200.828,169.913 199.904,171.278 198.392,171.278 L198.392,171.278 Z M205.7,173 L208.115,173 L208.115,166.7 C208.745,165.146 209.732,164.579 210.551,164.579 C210.992,164.579 211.265,164.642 211.622,164.747 L212.042,162.647 C211.727,162.5 211.391,162.437 210.866,162.437 C209.774,162.437 208.682,163.172 207.947,164.516 L207.863,164.516 L207.695,162.689 L205.7,162.689 L205.7,173 Z M217.943,173 L226.427,173 L226.427,170.942 L220.379,170.942 L220.379,166.889 L225.314,166.889 L225.314,164.831 L220.379,164.831 L220.379,161.324 L226.217,161.324 L226.217,159.266 L217.943,159.266 L217.943,173 Z M226.994,173 L229.514,173 L230.606,170.963 C230.9,170.333 231.215,169.724 231.509,169.136 L231.593,169.136 C231.95,169.724 232.307,170.354 232.643,170.963 L233.903,173 L236.507,173 L233.231,167.897 L236.276,162.689 L233.777,162.689 L232.79,164.642 C232.538,165.209 232.244,165.818 231.992,166.385 L231.908,166.385 C231.593,165.818 231.257,165.209 230.963,164.642 L229.808,162.689 L227.204,162.689 L230.27,167.624 L226.994,173 Z M242.177,173.252 C243.353,173.252 244.571,172.832 245.537,171.992 L244.55,170.396 C243.962,170.879 243.227,171.278 242.429,171.278 C240.812,171.278 239.678,169.913 239.678,167.855 C239.678,165.776 240.833,164.411 242.492,164.411 C243.143,164.411 243.668,164.684 244.214,165.167 L245.39,163.592 C244.634,162.941 243.689,162.437 242.366,162.437 C239.615,162.437 237.2,164.411 237.2,167.855 C237.2,171.278 239.363,173.252 242.177,173.252 L242.177,173.252 Z M251.48,173.252 C252.782,173.252 254.021,172.79 255.008,172.139 L254.189,170.627 C253.433,171.11 252.677,171.383 251.795,171.383 C250.136,171.383 248.96,170.333 248.75,168.506 L255.302,168.506 C255.365,168.254 255.407,167.792 255.407,167.33 C255.407,164.453 253.937,162.437 251.144,162.437 C248.729,162.437 246.398,164.495 246.398,167.855 C246.398,171.257 248.624,173.252 251.48,173.252 L251.48,173.252 Z M248.729,166.868 C248.939,165.209 249.989,164.306 251.207,164.306 C252.614,164.306 253.307,165.272 253.307,166.868 L248.729,166.868 Z M260.069,173.252 C260.636,173.252 261.056,173.168 261.35,173.042 L261.035,171.236 C260.846,171.278 260.762,171.278 260.657,171.278 C260.405,171.278 260.132,171.068 260.132,170.48 L260.132,158.174 L257.717,158.174 L257.717,170.354 C257.717,172.139 258.347,173.252 260.069,173.252 L260.069,173.252 Z M268.028,173 L270.443,173 L270.443,164.6 L272.459,164.6 L272.459,162.689 L270.443,162.689 L270.443,161.576 C270.443,160.379 270.905,159.833 271.745,159.833 C272.102,159.833 272.501,159.917 272.879,160.085 L273.341,158.279 C272.879,158.09 272.186,157.922 271.451,157.922 C269.015,157.922 268.028,159.476 268.028,161.618 L268.028,162.689 L266.642,162.794 L266.642,164.6 L268.028,164.6 L268.028,173 Z M274.265,173 L276.68,173 L276.68,162.689 L274.265,162.689 L274.265,173 Z M275.483,160.883 C276.344,160.883 276.974,160.316 276.974,159.518 C276.974,158.699 276.344,158.132 275.483,158.132 C274.622,158.132 273.992,158.699 273.992,159.518 C273.992,160.316 274.622,160.883 275.483,160.883 L275.483,160.883 Z M282.119,173.252 C282.686,173.252 283.106,173.168 283.4,173.042 L283.085,171.236 C282.896,171.278 282.812,171.278 282.707,171.278 C282.455,171.278 282.182,171.068 282.182,170.48 L282.182,158.174 L279.767,158.174 L279.767,170.354 C279.767,172.139 280.397,173.252 282.119,173.252 L282.119,173.252 Z M289.868,173.252 C291.17,173.252 292.409,172.79 293.396,172.139 L292.577,170.627 C291.821,171.11 291.065,171.383 290.183,171.383 C288.524,171.383 287.348,170.333 287.138,168.506 L293.69,168.506 C293.753,168.254 293.795,167.792 293.795,167.33 C293.795,164.453 292.325,162.437 289.532,162.437 C287.117,162.437 284.786,164.495 284.786,167.855 C284.786,171.257 287.012,173.252 289.868,173.252 L289.868,173.252 Z M287.117,166.868 C287.327,165.209 288.377,164.306 289.595,164.306 C291.002,164.306 291.695,165.272 291.695,166.868 L287.117,166.868 Z M300.305,173 L302.72,173 L302.72,165.797 C303.581,164.957 304.169,164.516 305.072,164.516 C306.206,164.516 306.689,165.146 306.689,166.847 L306.689,173 L309.104,173 L309.104,166.532 C309.104,163.928 308.138,162.437 305.933,162.437 C304.526,162.437 303.497,163.172 302.636,163.991 L302.72,161.996 L302.72,158.174 L300.305,158.174 L300.305,173 Z M316.433,173.252 C317.735,173.252 318.974,172.79 319.961,172.139 L319.142,170.627 C318.386,171.11 317.63,171.383 316.748,171.383 C315.089,171.383 313.913,170.333 313.703,168.506 L320.255,168.506 C320.318,168.254 320.36,167.792 320.36,167.33 C320.36,164.453 318.89,162.437 316.097,162.437 C313.682,162.437 311.351,164.495 311.351,167.855 C311.351,171.257 313.577,173.252 316.433,173.252 L316.433,173.252 Z M313.682,166.868 C313.892,165.209 314.942,164.306 316.16,164.306 C317.567,164.306 318.26,165.272 318.26,166.868 L313.682,166.868 Z M322.67,173 L325.085,173 L325.085,166.7 C325.715,165.146 326.702,164.579 327.521,164.579 C327.962,164.579 328.235,164.642 328.592,164.747 L329.012,162.647 C328.697,162.5 328.361,162.437 327.836,162.437 C326.744,162.437 325.652,163.172 324.917,164.516 L324.833,164.516 L324.665,162.689 L322.67,162.689 L322.67,173 Z M334.703,173.252 C336.005,173.252 337.244,172.79 338.231,172.139 L337.412,170.627 C336.656,171.11 335.9,171.383 335.018,171.383 C333.359,171.383 332.183,170.333 331.973,168.506 L338.525,168.506 C338.588,168.254 338.63,167.792 338.63,167.33 C338.63,164.453 337.16,162.437 334.367,162.437 C331.952,162.437 329.621,164.495 329.621,167.855 C329.621,171.257 331.847,173.252 334.703,173.252 L334.703,173.252 Z M331.952,166.868 C332.162,165.209 333.212,164.306 334.43,164.306 C335.837,164.306 336.53,165.272 336.53,166.868 L331.952,166.868 Z" id="drag-your-CSV-or-Exc" fill="#929CA9"></path>
                <path d="M226.976562,84.546875 C233.487012,84.546875 239.151018,86.825498 243.96875,91.3828125 C248.656273,95.940127 251,101.473926 251,107.984375 C251,114.494824 248.656273,120.028623 243.96875,124.585938 C239.151018,129.143252 233.487012,131.421875 226.976562,131.421875 L208.03125,131.421875 L208.03125,112.476562 L218.578125,112.476562 L201,89.4296875 L183.617188,112.476562 L193.96875,112.476562 L193.96875,131.421875 L169.164062,131.421875 C164.216121,131.421875 159.984393,129.66408 156.46875,126.148438 C152.822898,122.893213 151,118.791691 151,113.84375 C151,108.895809 152.757795,104.66408 156.273438,101.148438 C159.919289,97.7630039 164.216121,96.0703125 169.164062,96.0703125 C170.205734,96.0703125 170.85677,96.135416 171.117188,96.265625 C171.117188,96.135416 171.084636,95.6145879 171.019531,94.703125 C170.954427,93.7916621 170.921875,93.0104199 170.921875,92.359375 C170.921875,85.3280898 173.526016,79.2083594 178.734375,74 C183.942734,68.9218496 190.257775,66.3828125 197.679688,66.3828125 C203.669301,66.3828125 209.007789,68.1406074 213.695312,71.65625 C218.122418,74.9114746 221.247387,79.3385137 223.070312,84.9375 C225.414074,84.677082 226.716145,84.546875 226.976562,84.546875 L226.976562,84.546875 Z" id="Shape" fill="#D3DBE3"></path>
                <g id="Group" transform="translate(115.000000, 192.000000)">
                    <use id="Rectangle-24" stroke="#3787E1" mask="url(#mask-4)" stroke-width="1.8" fill="#3787E1" xlink:href="#path-3"></use>
                    <path d="M42.7682189,21.2389231 C44.2127189,21.2389231 45.5897189,19.9159231 45.5897189,17.6074231 C45.5897189,15.5554231 44.5772189,14.2189231 42.9572189,14.2189231 C42.3362189,14.2189231 41.7017189,14.5024231 41.1887189,14.9614231 L41.2427189,13.9354231 L41.2427189,11.6134231 L39.2582189,11.6134231 L39.2582189,21.0769231 L40.8107189,21.0769231 L40.9727189,20.3614231 L41.0267189,20.3614231 C41.5532189,20.9419231 42.1742189,21.2389231 42.7682189,21.2389231 L42.7682189,21.2389231 Z M42.3092189,19.6189231 C41.9717189,19.6189231 41.5937189,19.5109231 41.2427189,19.1869231 L41.2427189,16.4464231 C41.6207189,16.0279231 41.9852189,15.8389231 42.3902189,15.8389231 C43.1867189,15.8389231 43.5512189,16.4464231 43.5512189,17.6479231 C43.5512189,19.0249231 42.9977189,19.6189231 42.3092189,19.6189231 L42.3092189,19.6189231 Z M46.9937189,21.0769231 L48.9782189,21.0769231 L48.9782189,17.1889231 C49.3292189,16.2844231 49.9502189,15.9604231 50.4497189,15.9604231 C50.7332189,15.9604231 50.9357189,16.0009231 51.1787189,16.0684231 L51.5027189,14.3539231 C51.3137189,14.2729231 51.0842189,14.2189231 50.7062189,14.2189231 C50.0177189,14.2189231 49.2887189,14.6509231 48.8027189,15.5554231 L48.7487189,15.5554231 L48.6137189,14.3809231 L46.9937189,14.3809231 L46.9937189,21.0769231 Z M55.1072189,21.2389231 C56.7947189,21.2389231 58.3607189,19.9564231 58.3607189,17.7289231 C58.3607189,15.5014231 56.7947189,14.2189231 55.1072189,14.2189231 C53.4062189,14.2189231 51.8402189,15.5014231 51.8402189,17.7289231 C51.8402189,19.9564231 53.4062189,21.2389231 55.1072189,21.2389231 L55.1072189,21.2389231 Z M55.1072189,19.6324231 C54.2837189,19.6324231 53.8787189,18.8899231 53.8787189,17.7289231 C53.8787189,16.5679231 54.2837189,15.8254231 55.1072189,15.8254231 C55.9172189,15.8254231 56.3357189,16.5679231 56.3357189,17.7289231 C56.3357189,18.8899231 55.9172189,19.6324231 55.1072189,19.6324231 L55.1072189,19.6324231 Z M60.7367189,21.0769231 L63.0047189,21.0769231 L63.5987189,18.4039231 C63.7202189,17.7829231 63.8147189,17.1619231 63.9362189,16.4464231 L63.9902189,16.4464231 C64.1117189,17.1619231 64.2197189,17.7829231 64.3547189,18.4039231 L64.9622189,21.0769231 L67.2842189,21.0769231 L68.8907189,14.3809231 L67.0547189,14.3809231 L66.4202189,17.4859231 C66.2987189,18.1474231 66.2312189,18.7954231 66.1097189,19.4704231 L66.0557189,19.4704231 C65.9207189,18.7954231 65.7992189,18.1474231 65.6372189,17.4859231 L64.8812189,14.3809231 L63.1667189,14.3809231 L62.4242189,17.4859231 C62.2622189,18.1204231 62.1542189,18.7954231 62.0327189,19.4704231 L61.9787189,19.4704231 C61.8707189,18.7954231 61.7897189,18.1474231 61.6817189,17.4859231 L61.0337189,14.3809231 L59.0627189,14.3809231 L60.7367189,21.0769231 Z M72.0632189,21.2389231 C73.8587189,21.2389231 74.8172189,20.2939231 74.8172189,19.0789231 C74.8172189,17.8504231 73.8587189,17.3779231 73.0082189,17.0674231 C72.3197189,16.8109231 71.6987189,16.6489231 71.6987189,16.2169231 C71.6987189,15.8794231 71.9417189,15.6904231 72.4547189,15.6904231 C72.9272189,15.6904231 73.3862189,15.9064231 73.8722189,16.2574231 L74.7632189,15.0694231 C74.1827189,14.6374231 73.4267189,14.2189231 72.4007189,14.2189231 C70.8482189,14.2189231 69.8357189,15.0694231 69.8357189,16.3114231 C69.8357189,17.4184231 70.7942189,17.9719231 71.6042189,18.2824231 C72.2927189,18.5524231 72.9677189,18.7549231 72.9677189,19.2004231 C72.9677189,19.5514231 72.7112189,19.7674231 72.1172189,19.7674231 C71.5502189,19.7674231 70.9967189,19.5244231 70.3892189,19.0654231 L69.4982189,20.3074231 C70.1732189,20.8609231 71.1857189,21.2389231 72.0632189,21.2389231 L72.0632189,21.2389231 Z M79.0697189,21.2389231 C79.8662189,21.2389231 80.7572189,20.9554231 81.4457189,20.4829231 L80.7842189,19.2814231 C80.2982189,19.5784231 79.8392189,19.7269231 79.3397189,19.7269231 C78.4487189,19.7269231 77.7737189,19.2814231 77.5982189,18.3094231 L81.6077189,18.3094231 C81.6482189,18.1474231 81.6887189,17.7829231 81.6887189,17.4319231 C81.6887189,15.6094231 80.7437189,14.2189231 78.8402189,14.2189231 C77.2337189,14.2189231 75.6812189,15.5554231 75.6812189,17.7289231 C75.6812189,19.9429231 77.1527189,21.2389231 79.0697189,21.2389231 L79.0697189,21.2389231 Z M77.5847189,16.9999231 C77.7197189,16.1494231 78.2597189,15.7309231 78.8807189,15.7309231 C79.6772189,15.7309231 80.0012189,16.2574231 80.0012189,16.9999231 L77.5847189,16.9999231 Z M86.5082189,23.6959231 C88.0877189,23.6959231 88.8032189,22.8319231 89.4377189,21.1444231 L91.7597189,14.3809231 L89.8562189,14.3809231 L89.0462189,17.2564231 C88.8842189,17.8909231 88.7357189,18.5254231 88.5872189,19.1599231 L88.5332189,19.1599231 C88.3577189,18.4984231 88.1957189,17.8639231 88.0067189,17.2564231 L87.0482189,14.3809231 L85.0502189,14.3809231 L87.6287189,20.9014231 L87.5342189,21.2524231 C87.3587189,21.7789231 87.0212189,22.1299231 86.3597189,22.1299231 C86.2112189,22.1299231 86.0357189,22.0759231 85.9142189,22.0489231 L85.5632189,23.5609231 C85.8332189,23.6419231 86.1032189,23.6959231 86.5082189,23.6959231 L86.5082189,23.6959231 Z M95.5667189,21.2389231 C97.2542189,21.2389231 98.8202189,19.9564231 98.8202189,17.7289231 C98.8202189,15.5014231 97.2542189,14.2189231 95.5667189,14.2189231 C93.8657189,14.2189231 92.2997189,15.5014231 92.2997189,17.7289231 C92.2997189,19.9564231 93.8657189,21.2389231 95.5667189,21.2389231 L95.5667189,21.2389231 Z M95.5667189,19.6324231 C94.7432189,19.6324231 94.3382189,18.8899231 94.3382189,17.7289231 C94.3382189,16.5679231 94.7432189,15.8254231 95.5667189,15.8254231 C96.3767189,15.8254231 96.7952189,16.5679231 96.7952189,17.7289231 C96.7952189,18.8899231 96.3767189,19.6324231 95.5667189,19.6324231 L95.5667189,19.6324231 Z M102.195219,21.2389231 C103.113219,21.2389231 103.734219,20.8204231 104.301219,20.1454231 L104.341719,20.1454231 L104.490219,21.0769231 L106.110219,21.0769231 L106.110219,14.3809231 L104.125719,14.3809231 L104.125719,18.8089231 C103.734219,19.3354231 103.437219,19.5514231 102.937719,19.5514231 C102.357219,19.5514231 102.100719,19.2409231 102.100719,18.2824231 L102.100719,14.3809231 L100.116219,14.3809231 L100.116219,18.5389231 C100.116219,20.2129231 100.737219,21.2389231 102.195219,21.2389231 L102.195219,21.2389231 Z M107.851719,21.0769231 L109.836219,21.0769231 L109.836219,17.1889231 C110.187219,16.2844231 110.808219,15.9604231 111.307719,15.9604231 C111.591219,15.9604231 111.793719,16.0009231 112.036719,16.0684231 L112.360719,14.3539231 C112.171719,14.2729231 111.942219,14.2189231 111.564219,14.2189231 C110.875719,14.2189231 110.146719,14.6509231 109.660719,15.5554231 L109.606719,15.5554231 L109.471719,14.3809231 L107.851719,14.3809231 L107.851719,21.0769231 Z M118.840719,21.2389231 C119.569719,21.2389231 120.393219,21.0229231 121.054719,20.4424231 L120.271719,19.1464231 C119.920719,19.4164231 119.502219,19.6324231 119.070219,19.6324231 C118.206219,19.6324231 117.571719,18.8899231 117.571719,17.7289231 C117.571719,16.5679231 118.179219,15.8254231 119.137719,15.8254231 C119.448219,15.8254231 119.718219,15.9469231 120.042219,16.2169231 L120.973719,14.9344231 C120.474219,14.5159231 119.839719,14.2189231 119.016219,14.2189231 C117.166719,14.2189231 115.533219,15.5014231 115.533219,17.7289231 C115.533219,19.9564231 116.977719,21.2389231 118.840719,21.2389231 L118.840719,21.2389231 Z M124.726719,21.2389231 C126.414219,21.2389231 127.980219,19.9564231 127.980219,17.7289231 C127.980219,15.5014231 126.414219,14.2189231 124.726719,14.2189231 C123.025719,14.2189231 121.459719,15.5014231 121.459719,17.7289231 C121.459719,19.9564231 123.025719,21.2389231 124.726719,21.2389231 L124.726719,21.2389231 Z M124.726719,19.6324231 C123.903219,19.6324231 123.498219,18.8899231 123.498219,17.7289231 C123.498219,16.5679231 123.903219,15.8254231 124.726719,15.8254231 C125.536719,15.8254231 125.955219,16.5679231 125.955219,17.7289231 C125.955219,18.8899231 125.536719,19.6324231 124.726719,19.6324231 L124.726719,19.6324231 Z M129.343719,21.0769231 L131.328219,21.0769231 L131.328219,16.5544231 C131.746719,16.1224231 132.138219,15.9064231 132.462219,15.9064231 C133.029219,15.9064231 133.285719,16.2034231 133.285719,17.1754231 L133.285719,21.0769231 L135.270219,21.0769231 L135.270219,16.5544231 C135.702219,16.1224231 136.080219,15.9064231 136.417719,15.9064231 C136.984719,15.9064231 137.241219,16.2034231 137.241219,17.1754231 L137.241219,21.0769231 L139.225719,21.0769231 L139.225719,16.9189231 C139.225719,15.2449231 138.577719,14.2189231 137.133219,14.2189231 C136.242219,14.2189231 135.621219,14.7319231 135.027219,15.3394231 C134.689719,14.6239231 134.122719,14.2189231 133.177719,14.2189231 C132.300219,14.2189231 131.706219,14.6914231 131.152719,15.2449231 L131.098719,15.2449231 L130.963719,14.3809231 L129.343719,14.3809231 L129.343719,21.0769231 Z M140.913219,23.5609231 L142.897719,23.5609231 L142.897719,21.6034231 L142.830219,20.5369231 C143.302719,20.9824231 143.842719,21.2389231 144.423219,21.2389231 C145.867719,21.2389231 147.244719,19.9159231 147.244719,17.6209231 C147.244719,15.5554231 146.245719,14.2189231 144.625719,14.2189231 C143.923719,14.2189231 143.248719,14.5699231 142.722219,15.0424231 L142.668219,15.0424231 L142.533219,14.3809231 L140.913219,14.3809231 L140.913219,23.5609231 Z M143.964219,19.6189231 C143.626719,19.6189231 143.248719,19.5109231 142.897719,19.1869231 L142.897719,16.4464231 C143.289219,16.0279231 143.640219,15.8389231 144.045219,15.8389231 C144.841719,15.8389231 145.206219,16.4464231 145.206219,17.6479231 C145.206219,19.0249231 144.652719,19.6189231 143.964219,19.6189231 L143.964219,19.6189231 Z M150.660219,21.2389231 C151.578219,21.2389231 152.199219,20.8204231 152.766219,20.1454231 L152.806719,20.1454231 L152.955219,21.0769231 L154.575219,21.0769231 L154.575219,14.3809231 L152.590719,14.3809231 L152.590719,18.8089231 C152.199219,19.3354231 151.902219,19.5514231 151.402719,19.5514231 C150.822219,19.5514231 150.565719,19.2409231 150.565719,18.2824231 L150.565719,14.3809231 L148.581219,14.3809231 L148.581219,18.5389231 C148.581219,20.2129231 149.202219,21.2389231 150.660219,21.2389231 L150.660219,21.2389231 Z M158.895219,21.2389231 C159.543219,21.2389231 160.029219,21.1039231 160.380219,20.9959231 L160.069719,19.5514231 C159.894219,19.6189231 159.651219,19.6864231 159.435219,19.6864231 C158.908719,19.6864231 158.571219,19.3759231 158.571219,18.6199231 L158.571219,15.9334231 L160.177719,15.9334231 L160.177719,14.3809231 L158.571219,14.3809231 L158.571219,12.5989231 L156.924219,12.5989231 L156.694719,14.3809231 L155.668719,14.4619231 L155.668719,15.9334231 L156.586719,15.9334231 L156.586719,18.6469231 C156.586719,20.1994231 157.234719,21.2389231 158.895219,21.2389231 L158.895219,21.2389231 Z M164.241219,21.2389231 C165.037719,21.2389231 165.928719,20.9554231 166.617219,20.4829231 L165.955719,19.2814231 C165.469719,19.5784231 165.010719,19.7269231 164.511219,19.7269231 C163.620219,19.7269231 162.945219,19.2814231 162.769719,18.3094231 L166.779219,18.3094231 C166.819719,18.1474231 166.860219,17.7829231 166.860219,17.4319231 C166.860219,15.6094231 165.915219,14.2189231 164.011719,14.2189231 C162.405219,14.2189231 160.852719,15.5554231 160.852719,17.7289231 C160.852719,19.9429231 162.324219,21.2389231 164.241219,21.2389231 L164.241219,21.2389231 Z M162.756219,16.9999231 C162.891219,16.1494231 163.431219,15.7309231 164.052219,15.7309231 C164.848719,15.7309231 165.172719,16.2574231 165.172719,16.9999231 L162.756219,16.9999231 Z M168.237219,21.0769231 L170.221719,21.0769231 L170.221719,17.1889231 C170.572719,16.2844231 171.193719,15.9604231 171.693219,15.9604231 C171.976719,15.9604231 172.179219,16.0009231 172.422219,16.0684231 L172.746219,14.3539231 C172.557219,14.2729231 172.327719,14.2189231 171.949719,14.2189231 C171.261219,14.2189231 170.532219,14.6509231 170.046219,15.5554231 L169.992219,15.5554231 L169.857219,14.3809231 L168.237219,14.3809231 L168.237219,21.0769231 Z" id="browse-your-computer" fill="#FFFFFF"></path>
                    <path d="M4.30988633,24.4980513 C6.52388633,24.4980513 8.52188633,22.8060513 8.52188633,19.8720513 C8.52188633,16.9200513 6.52388633,15.2280513 4.30988633,15.2280513 C2.11388633,15.2280513 0.115886329,16.9200513 0.115886329,19.8720513 C0.115886329,22.8060513 2.11388633,24.4980513 4.30988633,24.4980513 L4.30988633,24.4980513 Z M4.30988633,22.8060513 C3.01388633,22.8060513 2.23988633,21.6360513 2.23988633,19.8720513 C2.23988633,18.0900513 3.01388633,16.9200513 4.30988633,16.9200513 C5.60588633,16.9200513 6.39788633,18.0900513 6.39788633,19.8720513 C6.39788633,21.6360513 5.60588633,22.8060513 4.30988633,22.8060513 L4.30988633,22.8060513 Z M10.5738863,24.2820513 L12.6438863,24.2820513 L12.6438863,18.8820513 C13.1838863,17.5500513 14.0298863,17.0640513 14.7318863,17.0640513 C15.1098863,17.0640513 15.3438863,17.1180513 15.6498863,17.2080513 L16.0098863,15.4080513 C15.7398863,15.2820513 15.4518863,15.2280513 15.0018863,15.2280513 C14.0658863,15.2280513 13.1298863,15.8580513 12.4998863,17.0100513 L12.4278863,17.0100513 L12.2838863,15.4440513 L10.5738863,15.4440513 L10.5738863,24.2820513 Z" id="or" fill="#ADB6BE"></path>
                </g>
            </g>
        </g>
    </g>
</svg>