<?xml version="1.0" encoding="UTF-8" standalone="no"?>
<svg width="20px" height="17px" viewBox="0 0 20 17" version="1.1" xmlns="http://www.w3.org/2000/svg" xmlns:xlink="http://www.w3.org/1999/xlink">
    <!-- Generator: Sketch 39.1 (31720) - http://www.bohemiancoding.com/sketch -->
    <title>hamburger-icon</title>
    <desc>Created with Sketch.</desc>
    <defs></defs>
    <g id="Home" stroke="none" stroke-width="1" fill="none" fill-rule="evenodd">
        <g id="-about-backup" transform="translate(-301.000000, -190.000000)" fill="#C0C6CE">
            <path d="M321,204.166667 L321,205.833333 C321,206.059029 320.917536,206.254339 320.752604,206.419271 C320.587673,206.584202 320.392362,206.666667 320.166667,206.666667 L301.833333,206.666667 C301.607638,206.666667 301.412327,206.584202 301.247396,206.419271 C301.082464,206.254339 301,206.059029 301,205.833333 L301,204.166667 C301,203.940971 301.082464,203.745661 301.247396,203.580729 C301.412327,203.415798 301.607638,203.333333 301.833333,203.333333 L320.166667,203.333333 C320.392362,203.333333 320.587673,203.415798 320.752604,203.580729 C320.917536,203.745661 321,203.940971 321,204.166667 L321,204.166667 Z M321,197.5 L321,199.166667 C321,199.392362 320.917536,199.587673 320.752604,199.752604 C320.587673,199.917536 320.392362,200 320.166667,200 L301.833333,200 C301.607638,200 301.412327,199.917536 301.247396,199.752604 C301.082464,199.587673 301,199.392362 301,199.166667 L301,197.5 C301,197.274304 301.082464,197.078994 301.247396,196.914062 C301.412327,196.749131 301.607638,196.666667 301.833333,196.666667 L320.166667,196.666667 C320.392362,196.666667 320.587673,196.749131 320.752604,196.914062 C320.917536,197.078994 321,197.274304 321,197.5 L321,197.5 Z M321,190.833333 L321,192.5 C321,192.725696 320.917536,192.921006 320.752604,193.085938 C320.587673,193.250869 320.392362,193.333333 320.166667,193.333333 L301.833333,193.333333 C301.607638,193.333333 301.412327,193.250869 301.247396,193.085938 C301.082464,192.921006 301,192.725696 301,192.5 L301,190.833333 C301,190.607638 301.082464,190.412327 301.247396,190.247396 C301.412327,190.082464 301.607638,190 301.833333,190 L320.166667,190 C320.392362,190 320.587673,190.082464 320.752604,190.247396 C320.917536,190.412327 321,190.607638 321,190.833333 L321,190.833333 Z" id="hamburger-icon"></path>
        </g>
    </g>
</svg>