<?xml version="1.0" encoding="UTF-8" standalone="no"?>
<svg width="18px" height="18px" viewBox="0 0 18 18" version="1.1" xmlns="http://www.w3.org/2000/svg" xmlns:xlink="http://www.w3.org/1999/xlink">
    <!-- Generator: Sketch 39.1 (31720) - http://www.bohemiancoding.com/sketch -->
    <title>icon-info</title>
    <desc>Created with Sketch.</desc>
    <defs></defs>
    <g id="-" stroke="none" stroke-width="1" fill="none" fill-rule="evenodd">
        <g id="in-depth-info" transform="translate(0.000000, -3.000000)" fill="#3385E4">
            <path d="M11.4285714,17.2142857 L11.4285714,15.4285714 C11.4285714,15.3244042 11.3950896,15.2388396 11.328125,15.171875 C11.2611604,15.1049104 11.1755958,15.0714286 11.0714286,15.0714286 L10,15.0714286 L10,9.35714286 C10,9.25297567 9.96651819,9.16741105 9.89955357,9.10044643 C9.83258895,9.03348181 9.74702433,9 9.64285714,9 L6.07142857,9 C5.96726138,9 5.88169676,9.03348181 5.81473214,9.10044643 C5.74776752,9.16741105 5.71428571,9.25297567 5.71428571,9.35714286 L5.71428571,11.1428571 C5.71428571,11.2470243 5.74776752,11.332589 5.81473214,11.3995536 C5.88169676,11.4665182 5.96726138,11.5 6.07142857,11.5 L7.14285714,11.5 L7.14285714,15.0714286 L6.07142857,15.0714286 C5.96726138,15.0714286 5.88169676,15.1049104 5.81473214,15.171875 C5.74776752,15.2388396 5.71428571,15.3244042 5.71428571,15.4285714 L5.71428571,17.2142857 C5.71428571,17.3184529 5.74776752,17.4040175 5.81473214,17.4709821 C5.88169676,17.5379468 5.96726138,17.5714286 6.07142857,17.5714286 L11.0714286,17.5714286 C11.1755958,17.5714286 11.2611604,17.5379468 11.328125,17.4709821 C11.3950896,17.4040175 11.4285714,17.3184529 11.4285714,17.2142857 L11.4285714,17.2142857 Z M10,7.21428571 L10,5.42857143 C10,5.32440424 9.96651819,5.23883962 9.89955357,5.171875 C9.83258895,5.10491038 9.74702433,5.07142857 9.64285714,5.07142857 L7.5,5.07142857 C7.39583281,5.07142857 7.31026819,5.10491038 7.24330357,5.171875 C7.17633895,5.23883962 7.14285714,5.32440424 7.14285714,5.42857143 L7.14285714,7.21428571 C7.14285714,7.3184529 7.17633895,7.40401752 7.24330357,7.47098214 C7.31026819,7.53794676 7.39583281,7.57142857 7.5,7.57142857 L9.64285714,7.57142857 C9.74702433,7.57142857 9.83258895,7.53794676 9.89955357,7.47098214 C9.96651819,7.40401752 10,7.3184529 10,7.21428571 L10,7.21428571 Z M17.1428571,11.8571429 C17.1428571,13.4122102 16.7596765,14.8463476 15.9933036,16.1595982 C15.2269307,17.4728488 14.1871345,18.512645 12.8738839,19.2790179 C11.5606333,20.0453907 10.1264959,20.4285714 8.57142857,20.4285714 C7.01636127,20.4285714 5.58222383,20.0453907 4.26897321,19.2790179 C2.9557226,18.512645 1.91592645,17.4728488 1.14955357,16.1595982 C0.383180692,14.8463476 0,13.4122102 0,11.8571429 C0,10.3020756 0.383180692,8.86793811 1.14955357,7.5546875 C1.91592645,6.24143689 2.9557226,5.20164074 4.26897321,4.43526786 C5.58222383,3.66889498 7.01636127,3.28571429 8.57142857,3.28571429 C10.1264959,3.28571429 11.5606333,3.66889498 12.8738839,4.43526786 C14.1871345,5.20164074 15.2269307,6.24143689 15.9933036,7.5546875 C16.7596765,8.86793811 17.1428571,10.3020756 17.1428571,11.8571429 L17.1428571,11.8571429 Z" id="icon-info"></path>
        </g>
    </g>
</svg>