<?xml version="1.0" encoding="UTF-8" standalone="no"?>
<svg width="18px" height="14px" viewBox="0 0 18 14" version="1.1" xmlns="http://www.w3.org/2000/svg" xmlns:xlink="http://www.w3.org/1999/xlink">
    <!-- Generator: Sketch 39.1 (31720) - http://www.bohemiancoding.com/sketch -->
    <title>icon-check</title>
    <desc>Created with Sketch.</desc>
    <defs></defs>
    <g id="Home" stroke="none" stroke-width="1" fill="none" fill-rule="evenodd">
        <g id="taxology-protocol-marketing-website" transform="translate(-822.000000, -3169.000000)" fill="#C8CACD">
            <g id="Design" transform="translate(-6.000000, 0.000000)">
                <path d="M845.649554,3172.17411 C845.649554,3172.47173 845.545388,3172.7247 845.337054,3172.93304 L837.256696,3181.01339 L835.738839,3182.53125 C835.530505,3182.73958 835.277531,3182.84375 834.979911,3182.84375 C834.68229,3182.84375 834.429317,3182.73958 834.220982,3182.53125 L832.703125,3181.01339 L828.662946,3176.97321 C828.454612,3176.76488 828.350446,3176.51191 828.350446,3176.21429 C828.350446,3175.91667 828.454612,3175.66369 828.662946,3175.45536 L830.180804,3173.9375 C830.389138,3173.72917 830.642112,3173.625 830.939732,3173.625 C831.237353,3173.625 831.490326,3173.72917 831.698661,3173.9375 L834.979911,3177.22991 L842.301339,3169.89732 C842.509674,3169.68899 842.762647,3169.58482 843.060268,3169.58482 C843.357888,3169.58482 843.610862,3169.68899 843.819196,3169.89732 L845.337054,3171.41518 C845.545388,3171.62351 845.649554,3171.87649 845.649554,3172.17411 L845.649554,3172.17411 Z" id="icon-check"></path>
            </g>
        </g>
    </g>
</svg>