<?xml version="1.0" encoding="UTF-8" standalone="no"?>
<svg width="63px" height="63px" viewBox="0 0 63 63" version="1.1" xmlns="http://www.w3.org/2000/svg" xmlns:xlink="http://www.w3.org/1999/xlink">
    <!-- Generator: Sketch 39.1 (31720) - http://www.bohemiancoding.com/sketch -->
    <title>icon-rocket</title>
    <desc>Created with Sketch.</desc>
    <defs></defs>
    <g id="Home" stroke="none" stroke-width="1" fill="none" fill-rule="evenodd">
        <g id="taxology-protocol-marketing-website" transform="translate(-675.000000, -891.000000)" fill="#ABD038">
            <path d="M738,891 L736.633929,891.040179 C736.633929,891.040179 727.182084,891.166195 718.071429,895.700893 C715.14292,897.163148 712.198638,899.164311 709.553571,901.808036 C706.294634,905.066973 701.694903,910.413999 697.5,915.46875 L686.53125,915.46875 C686.491094,915.466866 686.450871,915.466866 686.410714,915.46875 C686.062782,915.502627 685.743639,915.676705 685.526786,915.950893 L679.098214,923.665179 C678.825365,924.005821 678.743933,924.461612 678.881949,924.87566 C679.019965,925.289708 679.358585,925.605481 679.78125,925.714286 L687.616071,927.683036 C687.556299,927.758965 687.174107,928.245536 687.174107,928.245536 L687.013393,928.40625 L686.933036,928.647321 C686.933036,928.647321 686.823517,929.098066 686.852679,929.53125 C686.863397,929.690474 686.892823,929.900641 686.933036,930.09375 L684.160714,934.754464 C684.160714,934.754464 684.03713,935.004187 684,935.15625 C683.96287,935.308313 683.955478,935.492215 683.959821,935.678571 C683.968513,936.051286 684.060693,936.465957 684.28125,936.964286 C684.722363,937.960943 685.66954,939.276019 687.696429,941.303571 C689.724049,943.329864 691.038762,944.278138 692.035714,944.71875 C692.534191,944.939056 692.948587,945.031811 693.321429,945.040179 C693.507849,945.044421 693.691705,945.037221 693.84375,945 C693.995795,944.962714 694.245536,944.839286 694.245536,944.839286 L698.946429,942.066964 C699.123793,942.102301 699.320683,942.137383 699.46875,942.147321 C699.901831,942.176391 700.352679,942.066964 700.352679,942.066964 L700.59375,941.986607 L700.794643,941.825893 C700.794643,941.825893 701.252806,941.474857 701.316964,941.424107 L703.285714,949.21875 C703.394519,949.641415 703.710292,949.980035 704.12434,950.118051 C704.538388,950.256067 704.994179,950.174635 705.334821,949.901786 L713.049107,943.473214 C713.35407,943.229024 713.531475,942.859431 713.53125,942.46875 L713.53125,931.459821 C718.619386,927.229245 724.004191,922.633629 727.191964,919.446429 C729.825303,916.809062 731.79886,913.863375 733.258929,910.928571 C737.773179,901.833528 737.959821,892.366071 737.959821,892.366071 L738,891 L738,891 Z M735.227679,893.772321 C735.120219,895.706232 734.617169,902.452955 730.96875,909.803571 C729.613104,912.528482 727.793162,915.225474 725.383929,917.638393 C722.247601,920.774157 716.735966,925.472096 711.602679,929.732143 C711.497785,929.798504 711.403052,929.879704 711.321429,929.973214 C705.30885,934.956693 699.887847,939.267687 699.549107,939.535714 C699.399321,939.518697 699.161496,939.504276 698.745536,939.334821 C697.786278,938.944038 696.103642,937.937841 693.602679,935.4375 C691.100348,932.934547 690.056421,931.214276 689.665179,930.254464 C689.495525,929.838263 689.481341,929.600722 689.464286,929.450893 C689.730697,929.113064 693.984657,923.750009 698.946429,917.758929 C699.079547,917.648024 699.188878,917.511359 699.267857,917.357143 C703.483635,912.276163 708.152818,906.824861 711.361607,903.616071 C713.782255,901.196653 716.475509,899.389852 719.196429,898.03125 C726.557112,894.367576 733.297609,893.873585 735.227679,893.772321 L735.227679,893.772321 Z M718.674107,903.897321 C715.138934,903.897321 712.245536,906.79072 712.245536,910.325893 C712.245536,913.861066 715.138934,916.754464 718.674107,916.754464 C722.20928,916.754464 725.102679,913.861066 725.102679,910.325893 C725.102679,906.79072 722.20928,903.897321 718.674107,903.897321 L718.674107,903.897321 Z M718.674107,906.46875 C720.819577,906.46875 722.53125,908.180423 722.53125,910.325893 C722.53125,912.471363 720.819577,914.183036 718.674107,914.183036 C716.528637,914.183036 714.816964,912.471363 714.816964,910.325893 C714.816964,908.180423 716.528637,906.46875 718.674107,906.46875 L718.674107,906.46875 Z M687.133929,918.040179 L695.370536,918.040179 C692.90234,921.049655 690.873213,923.6047 689.383929,925.473214 L682.392857,923.705357 L687.133929,918.040179 L687.133929,918.040179 Z M688.21875,932.946429 C688.949654,934.120071 690.028723,935.519365 691.754464,937.245536 C693.479425,938.970067 694.879518,940.049932 696.053571,940.78125 L693.28125,942.428571 C693.242473,942.420857 693.246073,942.4215 693.080357,942.348214 C692.55438,942.115755 691.400844,941.390672 689.504464,939.495536 C687.608638,937.599088 686.884709,936.445914 686.651786,935.919643 C686.578399,935.753832 686.579198,935.757636 686.571429,935.71875 L688.21875,932.946429 L688.21875,932.946429 Z M710.959821,933.629464 L710.959821,941.866071 L705.294643,946.607143 L703.526786,939.65625 C705.390111,938.165291 707.920106,936.12857 710.959821,933.629464 L710.959821,933.629464 Z M683.196429,938.892857 C681.099555,940.504311 679.196936,940.711715 677.491071,942.388393 C676.638139,943.226731 675.961755,944.4155 675.5625,946.044643 C675.163245,947.673786 675,949.771962 675,952.714286 L675,954 L676.285714,954 C682.190597,954 685.081948,953.066172 686.8125,951.308036 C688.543052,949.5499 688.833941,947.592896 690.147321,945.803571 L688.058036,944.276786 C686.391131,946.547747 686.016662,948.43085 684.964286,949.5 C684.033795,950.445321 681.965605,951.138386 677.691964,951.308036 C677.758327,949.442113 677.848397,947.648472 678.09375,946.647321 C678.413129,945.344111 678.808789,944.718537 679.299107,944.236607 C680.279743,943.27275 682.19923,942.841475 684.723214,940.901786 L683.196429,938.892857 L683.196429,938.892857 Z M693.080357,942.549107 L692.959821,942.629464 L692.959821,942.589286 C692.959821,942.589286 693.032169,942.570399 693.080357,942.549107 L693.080357,942.549107 Z" id="icon-rocket"></path>
        </g>
    </g>
</svg>