<?xml version="1.0" encoding="UTF-8" standalone="no"?>
<svg width="54px" height="59px" viewBox="0 0 54 59" version="1.1" xmlns="http://www.w3.org/2000/svg" xmlns:xlink="http://www.w3.org/1999/xlink">
    <!-- Generator: Sketch 39.1 (31720) - http://www.bohemiancoding.com/sketch -->
    <title>icon-time</title>
    <desc>Created with Sketch.</desc>
    <defs></defs>
    <g id="Home" stroke="none" stroke-width="1" fill="none" fill-rule="evenodd">
        <g id="taxology-protocol-marketing-website" transform="translate(-371.000000, -891.000000)" stroke="#FFFFFF" fill="#ABD038">
            <path d="M398,892 L386.181818,899.090909 L398,906.181818 L398,901.454545 C409.710743,901.454545 419.272727,911.016529 419.272727,922.727273 C419.272727,934.438015 409.710743,944 398,944 C386.289256,944 376.727273,934.438015 376.727273,922.727273 C376.727273,916.929069 378.815129,911.923507 382.636364,908.102273 L379.3125,904.778409 C374.624643,909.466266 372,915.76184 372,922.727273 C372,937.01653 383.710744,948.727273 398,948.727273 C412.289257,948.727273 424,937.01653 424,922.727273 C424,908.438017 412.289257,896.727273 398,896.727273 L398,892 L398,892 Z M393.051136,907.511364 L388.767045,909.579545 L394.75,921.397727 C394.587226,921.804653 394.454545,922.262225 394.454545,922.727273 C394.454545,922.775741 394.452619,922.827004 394.454545,922.875 L386.846591,930.482955 L390.244318,933.880682 L397.852273,926.272727 C397.900269,926.274654 397.951531,926.272727 398,926.272727 C399.9581,926.272727 401.545455,924.685373 401.545455,922.727273 C401.545455,921.095522 400.460829,919.742314 398.960227,919.329545 L393.051136,907.511364 L393.051136,907.511364 Z" id="icon-time"></path>
        </g>
    </g>
</svg>