<?xml version="1.0" encoding="UTF-8"?>
<svg width="60px" height="60px" viewBox="0 0 60 60" version="1.1" xmlns="http://www.w3.org/2000/svg" xmlns:xlink="http://www.w3.org/1999/xlink">
    <!-- Generator: Sketch 50.2 (55047) - http://www.bohemiancoding.com/sketch -->
    <title>icon-cloud</title>
    <desc>Created with Sketch.</desc>
    <defs></defs>
    <g id="icon-cloud" stroke="none" stroke-width="1" fill="none" fill-rule="evenodd">
        <path d="M47,48.8165527 L47,45.9318458 C52.7217398,45.0471262 57.1428571,40.0653935 57.1428571,34.1071429 C57.1428571,28.3300369 53.0631671,23.457889 47.4653698,22.3383295 L46.4247811,22.1302118 L46.3234872,21.0738608 C45.6058944,13.590393 39.3514397,7.85714286 31.7857143,7.85714286 C26.0215375,7.85714286 20.9739909,11.1845758 18.5746292,16.4005794 L18.0625431,17.5138102 L16.9303062,17.1894893 C15.8359767,16.8776484 15.3916284,16.7857143 14.8214286,16.7857143 C11.1461211,16.7857143 8.21428571,19.7175496 8.21428571,23.3928571 C8.21428571,23.9630569 8.30621985,24.4074053 8.6057485,25.4557555 L8.91129136,26.5251556 L7.94947931,27.0836271 C4.8420299,28.8879525 2.85714286,32.2595415 2.85714286,35.8928571 C2.85714286,41.4654861 7.46308536,46.0714286 13.0357143,46.0714286 L15,46.0714286 L15,48.9285714 L13.0357143,48.9285714 C5.88512893,48.9285714 0,43.0434425 0,35.8928571 C-2.11471052e-16,31.6058819 2.1439335,27.6190167 5.5824628,25.2087547 C5.42028949,24.5297583 5.35714286,24.0294603 5.35714286,23.3928571 C5.35714286,18.1395932 9.56816464,13.9285714 14.8214286,13.9285714 C15.4250331,13.9285714 15.9060971,13.9853413 16.5200595,14.1259644 C19.5583908,8.5312841 25.29927,5 31.7857143,5 C40.4803759,5 47.7306065,11.3386559 49.0390901,19.7759049 C55.43469,21.5209007 60,27.3093856 60,34.1071429 C60,41.6457996 54.303282,47.9123209 47,48.8165527 Z" id="Shape" fill="#ABD038" fill-rule="nonzero"></path>
        <g transform="translate(19.000000, 26.000000)" fill="#ABD038" fill-rule="nonzero" id="Shape">
            <path d="M20.4244792,10.187234 L20.4244792,6.37446809 C20.4244792,3.81276596 17.9088542,0 11.5,0 C5.09114583,0 2.57552083,3.81276596 2.57552083,6.37446809 L2.57552083,10.187234 L0,10.187234 L0,24.187234 C0,26.2723404 1.73697917,28 3.83333333,28 L19.1666667,28 C21.2630208,28 23,26.2723404 23,24.187234 L23,10.187234 L20.4244792,10.187234 Z M5.09114583,5.12340426 C5.09114583,5.12340426 6.40885417,2.56170213 11.5,2.56170213 C16.5911458,2.56170213 17.9088542,5.12340426 17.9088542,5.12340426 L17.9088542,10.187234 L5.09114583,10.187234 L5.09114583,5.12340426 Z M20.4244792,24.187234 C20.4244792,24.8425532 19.8854167,25.4382979 19.1666667,25.4382979 L3.83333333,25.4382979 C3.11458333,25.4382979 2.57552083,24.8425532 2.57552083,24.187234 L2.57552083,12.7489362 L20.4244792,12.7489362 L20.4244792,24.187234 Z M10.2421875,20.0170213 L10.2421875,22.8765957 L12.7578125,22.8765957 L12.7578125,20.0170213 C13.5364583,19.5404255 14.0755208,18.7659574 14.0755208,17.812766 C14.0755208,16.3829787 12.9375,15.2510638 11.5,15.2510638 C10.0625,15.2510638 8.92447917,16.3829787 8.92447917,17.812766 C8.92447917,18.7659574 9.46354167,19.5404255 10.2421875,20.0170213 Z"></path>
        </g>
    </g>
</svg>