<?xml version="1.0" encoding="UTF-8"?>
<svg width="63px" height="63px" viewBox="0 0 63 63" version="1.1" xmlns="http://www.w3.org/2000/svg" xmlns:xlink="http://www.w3.org/1999/xlink">
    <!-- Generator: Sketch 50.2 (55047) - http://www.bohemiancoding.com/sketch -->
    <title>icon-rocket</title>
    <desc>Created with Sketch.</desc>
    <defs></defs>
    <g id="icon-rocket" stroke="none" stroke-width="1" fill="none" fill-rule="evenodd">
        <path d="M63,0 L61.633929,0.040179 C61.633929,0.040179 52.182084,0.166195 43.071429,4.700893 C40.14292,6.163148 37.198638,8.164311 34.553571,10.808036 C31.294634,14.066973 26.694903,19.413999 22.5,24.46875 L11.53125,24.46875 C11.491094,24.466866 11.450871,24.466866 11.410714,24.46875 C11.062782,24.502627 10.743639,24.676705 10.526786,24.950893 L4.098214,32.665179 C3.825365,33.005821 3.743933,33.461612 3.881949,33.87566 C4.019965,34.289708 4.358585,34.605481 4.78125,34.714286 L12.616071,36.683036 C12.556299,36.758965 12.174107,37.245536 12.174107,37.245536 L12.013393,37.40625 L11.933036,37.647321 C11.933036,37.647321 11.823517,38.098066 11.852679,38.53125 C11.863397,38.690474 11.892823,38.900641 11.933036,39.09375 L9.160714,43.754464 C9.160714,43.754464 9.03713,44.004187 9,44.15625 C8.96287,44.308313 8.955478,44.492215 8.959821,44.678571 C8.968513,45.051286 9.060693,45.465957 9.28125,45.964286 C9.722363,46.960943 10.66954,48.276019 12.696429,50.303571 C14.724049,52.329864 16.038762,53.278138 17.035714,53.71875 C17.534191,53.939056 17.948587,54.031811 18.321429,54.040179 C18.507849,54.044421 18.691705,54.037221 18.84375,54 C18.995795,53.962714 19.245536,53.839286 19.245536,53.839286 L23.946429,51.066964 C24.123793,51.102301 24.320683,51.137383 24.46875,51.147321 C24.901831,51.176391 25.352679,51.066964 25.352679,51.066964 L25.59375,50.986607 L25.794643,50.825893 C25.794643,50.825893 26.252806,50.474857 26.316964,50.424107 L28.285714,58.21875 C28.394519,58.641415 28.710292,58.980035 29.12434,59.118051 C29.538388,59.256067 29.994179,59.174635 30.334821,58.901786 L38.049107,52.473214 C38.35407,52.229024 38.531475,51.859431 38.53125,51.46875 L38.53125,40.459821 C43.619386,36.229245 49.004191,31.633629 52.191964,28.446429 C54.825303,25.809062 56.79886,22.863375 58.258929,19.928571 C62.773179,10.833528 62.959821,1.366071 62.959821,1.366071 L63,0 Z M60.227679,2.772321 C60.120219,4.706232 59.617169,11.452955 55.96875,18.803571 C54.613104,21.528482 52.793162,24.225474 50.383929,26.638393 C47.247601,29.774157 41.735966,34.472096 36.602679,38.732143 C36.497785,38.798504 36.403052,38.879704 36.321429,38.973214 C30.30885,43.956693 24.887847,48.267687 24.549107,48.535714 C24.399321,48.518697 24.161496,48.504276 23.745536,48.334821 C22.786278,47.944038 21.103642,46.937841 18.602679,44.4375 C16.100348,41.934547 15.056421,40.214276 14.665179,39.254464 C14.495525,38.838263 14.481341,38.600722 14.464286,38.450893 C14.730697,38.113064 18.984657,32.750009 23.946429,26.758929 C24.079547,26.648024 24.188878,26.511359 24.267857,26.357143 C28.483635,21.276163 33.152818,15.824861 36.361607,12.616071 C38.782255,10.196653 41.475509,8.389852 44.196429,7.03125 C51.557112,3.367576 58.297609,2.873585 60.227679,2.772321 Z M43.674107,12.897321 C40.138934,12.897321 37.245536,15.79072 37.245536,19.325893 C37.245536,22.861066 40.138934,25.754464 43.674107,25.754464 C47.20928,25.754464 50.102679,22.861066 50.102679,19.325893 C50.102679,15.79072 47.20928,12.897321 43.674107,12.897321 Z M43.674107,15.46875 C45.819577,15.46875 47.53125,17.180423 47.53125,19.325893 C47.53125,21.471363 45.819577,23.183036 43.674107,23.183036 C41.528637,23.183036 39.816964,21.471363 39.816964,19.325893 C39.816964,17.180423 41.528637,15.46875 43.674107,15.46875 Z M12.133929,27.040179 L20.370536,27.040179 C17.90234,30.049655 15.873213,32.6047 14.383929,34.473214 L7.392857,32.705357 L12.133929,27.040179 Z M13.21875,41.946429 C13.949654,43.120071 15.028723,44.519365 16.754464,46.245536 C18.479425,47.970067 19.879518,49.049932 21.053571,49.78125 L18.28125,51.428571 C18.242473,51.420857 18.246073,51.4215 18.080357,51.348214 C17.55438,51.115755 16.400844,50.390672 14.504464,48.495536 C12.608638,46.599088 11.884709,45.445914 11.651786,44.919643 C11.578399,44.753832 11.579198,44.757636 11.571429,44.71875 L13.21875,41.946429 Z M35.959821,42.629464 L35.959821,50.866071 L30.294643,55.607143 L28.526786,48.65625 C30.390111,47.165291 32.920106,45.12857 35.959821,42.629464 Z M8.196429,47.892857 C6.099555,49.504311 4.196936,49.711715 2.491071,51.388393 C1.638139,52.226731 0.961755,53.4155 0.5625,55.044643 C0.163245,56.673786 0,58.771962 0,61.714286 L0,63 L1.285714,63 C7.190597,63 10.081948,62.066172 11.8125,60.308036 C13.543052,58.5499 13.833941,56.592896 15.147321,54.803571 L13.058036,53.276786 C11.391131,55.547747 11.016662,57.43085 9.964286,58.5 C9.033795,59.445321 6.965605,60.138386 2.691964,60.308036 C2.758327,58.442113 2.848397,56.648472 3.09375,55.647321 C3.413129,54.344111 3.808789,53.718537 4.299107,53.236607 C5.279743,52.27275 7.19923,51.841475 9.723214,49.901786 L8.196429,47.892857 Z M18.080357,51.549107 L17.959821,51.629464 L17.959821,51.589286 C17.959821,51.589286 18.032169,51.570399 18.080357,51.549107 Z" fill="#ABD038" fill-rule="nonzero"></path>
    </g>
</svg>