<?xml version="1.0" encoding="UTF-8" standalone="no"?>
<svg width="60px" height="60px" viewBox="0 0 60 60" version="1.1" xmlns="http://www.w3.org/2000/svg" xmlns:xlink="http://www.w3.org/1999/xlink">
    <!-- Generator: Sketch 39.1 (31720) - http://www.bohemiancoding.com/sketch -->
    <title>icon-calendar</title>
    <desc>Created with Sketch.</desc>
    <defs></defs>
    <g id="Home" stroke="none" stroke-width="1" fill="none" fill-rule="evenodd">
        <g id="taxology-protocol-marketing-website" transform="translate(-1002.000000, -891.000000)" fill="#ABD038">
            <path d="M1015.2,891 C1014.57333,891 1013.92744,891.222563 1013.475,891.675 C1013.02256,892.127437 1012.8,892.773333 1012.8,893.4 L1012.8,895.8 L1004.4,895.8 C1003.77333,895.8 1003.12744,896.022563 1002.675,896.475 C1002.22256,896.927437 1002,897.573333 1002,898.2 L1002,948.6 C1002,949.226666 1002.22256,949.872563 1002.675,950.325 C1003.12744,950.777437 1003.77333,951 1004.4,951 L1059.6,951 C1060.22667,951 1060.87256,950.777437 1061.325,950.325 C1061.77744,949.872563 1062,949.226666 1062,948.6 L1062,898.2 C1062,897.573333 1061.77744,896.927437 1061.325,896.475 C1060.87256,896.022563 1060.22667,895.8 1059.6,895.8 L1051.2,895.8 L1051.2,893.4 C1051.2,892.773333 1050.97744,892.127437 1050.525,891.675 C1050.07256,891.222563 1049.42667,891 1048.8,891 L1046.4,891 C1045.77333,891 1045.12744,891.222563 1044.675,891.675 C1044.22256,892.127437 1044,892.773333 1044,893.4 L1044,895.8 L1020,895.8 L1020,893.4 C1020,892.773333 1019.77744,892.127437 1019.325,891.675 C1018.87256,891.222563 1018.22667,891 1017.6,891 L1015.2,891 L1015.2,891 Z M1015.2,893.4 L1017.6,893.4 L1017.6,900.6 L1015.2,900.6 L1015.2,893.4 L1015.2,893.4 Z M1046.4,893.4 L1048.8,893.4 L1048.8,900.6 L1046.4,900.6 L1046.4,893.4 L1046.4,893.4 Z M1004.4,898.2 L1012.8,898.2 L1012.8,900.6 C1012.8,901.226667 1013.02256,901.872563 1013.475,902.325 C1013.92744,902.777437 1014.57333,903 1015.2,903 L1017.6,903 C1018.22667,903 1018.87256,902.777437 1019.325,902.325 C1019.77744,901.872563 1020,901.226667 1020,900.6 L1020,898.2 L1044,898.2 L1044,900.6 C1044,901.226667 1044.22256,901.872563 1044.675,902.325 C1045.12744,902.777437 1045.77333,903 1046.4,903 L1048.8,903 C1049.42667,903 1050.07256,902.777437 1050.525,902.325 C1050.97744,901.872563 1051.2,901.226667 1051.2,900.6 L1051.2,898.2 L1059.6,898.2 L1059.6,907.8 L1004.4,907.8 L1004.4,898.2 L1004.4,898.2 Z M1004.4,910.2 L1059.6,910.2 L1059.6,948.6 L1004.4,948.6 L1004.4,910.2 L1004.4,910.2 Z M1010.175,916.2 C1009.6013,916.309466 1009.18971,916.816042 1009.2,917.4 L1009.2,942.6 C1009.20007,943.262714 1009.73729,943.799934 1010.4,943.8 L1038,943.8 L1053.6,943.8 C1054.26271,943.799934 1054.79993,943.262714 1054.8,942.6 L1054.8,917.4 C1054.79993,916.737286 1054.26271,916.200066 1053.6,916.2 L1010.4,916.2 C1010.36252,916.198241 1010.32498,916.198241 1010.2875,916.2 C1010.25002,916.198241 1010.21248,916.198241 1010.175,916.2 L1010.175,916.2 Z M1011.6,918.6 L1020,918.6 L1020,924.6 L1011.6,924.6 L1011.6,918.6 L1011.6,918.6 Z M1022.4,918.6 L1030.8,918.6 L1030.8,924.6 L1022.4,924.6 L1022.4,918.6 L1022.4,918.6 Z M1033.2,918.6 L1041.6,918.6 L1041.6,924.6 L1033.2,924.6 L1033.2,918.6 L1033.2,918.6 Z M1044,918.6 L1052.4,918.6 L1052.4,924.6 L1044,924.6 L1044,918.6 L1044,918.6 Z M1011.6,927 L1020,927 L1020,933 L1011.6,933 L1011.6,927 L1011.6,927 Z M1022.4,927 L1030.8,927 L1030.8,933 L1022.4,933 L1022.4,927 L1022.4,927 Z M1033.2,927 L1041.6,927 L1041.6,933 L1033.2,933 L1033.2,927 L1033.2,927 Z M1044,927 L1052.4,927 L1052.4,933 L1044,933 L1044,927 L1044,927 Z M1011.6,935.4 L1020,935.4 L1020,941.4 L1011.6,941.4 L1011.6,935.4 L1011.6,935.4 Z M1022.4,935.4 L1030.8,935.4 L1030.8,941.4 L1022.4,941.4 L1022.4,935.4 L1022.4,935.4 Z M1033.2,935.4 L1041.6,935.4 L1041.6,941.4 L1038,941.4 L1033.2,941.4 L1033.2,935.4 L1033.2,935.4 Z M1044,935.4 L1052.4,935.4 L1052.4,941.4 L1044,941.4 L1044,935.4 L1044,935.4 Z" id="icon-calendar"></path>
        </g>
    </g>
</svg>