<?xml version="1.0" encoding="UTF-8"?>
<svg width="60px" height="60px" viewBox="0 0 60 60" version="1.1" xmlns="http://www.w3.org/2000/svg" xmlns:xlink="http://www.w3.org/1999/xlink">
    <!-- Generator: Sketch 50.2 (55047) - http://www.bohemiancoding.com/sketch -->
    <title>icon-costs</title>
    <desc>Created with Sketch.</desc>
    <defs></defs>
    <g id="icon-costs" stroke="none" stroke-width="1" fill="none" fill-rule="evenodd">
        <g id="Group" transform="translate(0.000000, 3.000000)" stroke="#ABD038" stroke-width="2.5">
            <path d="M31.5817423,24.3359682 L53.9972976,24.3359682 C54.0356163,24.2908596 54.0427859,24.2742585 54.0442346,24.2963397 C53.8465871,20.3433897 52.7296732,16.696994 50.6883905,13.3387555 C48.6430235,9.97379768 45.9439128,7.274687 42.578955,5.22931996 C39.2207165,3.18803727 35.5743208,2.07112339 31.6837928,1.87503546 C31.6478846,1.87503546 31.6271597,1.88210439 31.5817423,1.92043237 L31.5817423,24.3359682 Z M53.9874887,24.3497267 C53.9863557,24.3494886 53.9863812,24.348604 53.9879389,24.3468238 C53.9887206,24.3459304 53.9894915,24.3450461 53.9902518,24.3441708 Z M24.1033284,5.25827282 C24.1031131,5.25947956 24.1022291,5.25948655 24.1004113,5.25789597 C24.0955964,5.25368295 24.0910448,5.24978416 24.0867793,5.24617532 Z M24.0867793,5.24617532 C24.0444309,5.21034673 24.0302801,5.20309646 24.0666404,5.20065312 C19.974161,5.46489437 16.2225468,6.66618314 12.7935609,8.80929954 C9.36551132,10.9518307 6.65159186,13.797334 4.63913277,17.3603772 C2.63121554,20.9153791 1.62862297,24.7942612 1.62862297,29.0180965 C1.62862297,33.2319953 2.69535031,37.1378587 4.83490742,40.7586473 C6.98105691,44.3905922 9.86305609,47.2725914 13.495001,49.4187409 C17.1149942,51.557828 21.0554157,52.6250253 25.3395557,52.6250253 C28.3063716,52.6250253 31.1526841,52.0985399 33.8862265,51.0446437 C36.6190647,49.9910191 39.0689681,48.4783991 41.1995717,46.5435605 C41.1970856,46.5458648 41.1965284,46.544846 41.1973487,46.5357938 C41.2106781,46.5439981 41.2112203,46.5535241 41.200298,46.5426018 L24.0895557,29.4318595 L24.0895557,5.20120647 C24.0895557,5.21803095 24.1043779,5.25239309 24.1033284,5.25827282 Z M41.1973487,46.5357938 C41.198251,46.5258374 41.2008197,46.5061623 41.2043984,46.4703753 C41.2025083,46.4892765 41.2061476,46.5111388 41.208294,46.5267065 Z" id=""></path>
            <path d="M57.8454244,31.8281548 L37.197653,31.8281548 L51.796968,46.4274697 C51.8236624,46.4163956 51.8482461,46.4003047 51.8689535,46.3809188 C53.7135557,44.3386806 55.1436685,42.0702258 56.1633325,39.5704037 C57.1851553,37.0652891 57.7607873,34.4996161 57.8908188,31.9302053 C57.8908188,31.8942971 57.8837499,31.8735721 57.8454219,31.8281548 Z M51.7406564,46.4426519 C51.7391454,46.4427355 51.737648,46.4428495 51.7361688,46.4429974 C51.7406064,46.4425537 51.7450244,46.4419614 51.7494163,46.441227 Z" id="Path"></path>
        </g>
    </g>
</svg>