<?xml version="1.0" encoding="UTF-8" standalone="no"?>
<svg width="12px" height="7px" viewBox="0 0 12 7" version="1.1" xmlns="http://www.w3.org/2000/svg" xmlns:xlink="http://www.w3.org/1999/xlink">
    <!-- Generator: Sketch 39.1 (31720) - http://www.bohemiancoding.com/sketch -->
    <title>icon-up</title>
    <desc>Created with Sketch.</desc>
    <defs></defs>
    <g id="Home" stroke="none" stroke-width="1" fill="none" fill-rule="evenodd">
        <g id="taxology-protocol-marketing-website" transform="translate(-1185.000000, -5133.000000)" fill="#FFFFFF">
            <path d="M1196.99777,5139.07143 C1196.99777,5139.16816 1196.96057,5139.25372 1196.88616,5139.32812 L1196.32812,5139.88616 C1196.25372,5139.96057 1196.16816,5139.99777 1196.07143,5139.99777 C1195.9747,5139.99777 1195.88914,5139.96057 1195.81473,5139.88616 L1191.42857,5135.5 L1187.04241,5139.88616 C1186.96801,5139.96057 1186.88244,5139.99777 1186.78571,5139.99777 C1186.68899,5139.99777 1186.60342,5139.96057 1186.52902,5139.88616 L1185.97098,5139.32812 C1185.89658,5139.25372 1185.85938,5139.16816 1185.85938,5139.07143 C1185.85938,5138.9747 1185.89658,5138.88914 1185.97098,5138.81473 L1191.17188,5133.61384 C1191.24628,5133.53943 1191.33184,5133.50223 1191.42857,5133.50223 C1191.5253,5133.50223 1191.61086,5133.53943 1191.68527,5133.61384 L1196.88616,5138.81473 C1196.96057,5138.88914 1196.99777,5138.9747 1196.99777,5139.07143 L1196.99777,5139.07143 Z" id="icon-up"></path>
        </g>
    </g>
</svg>