<?xml version="1.0" encoding="UTF-8"?>
<svg width="54px" height="59px" viewBox="0 0 54 59" version="1.1" xmlns="http://www.w3.org/2000/svg" xmlns:xlink="http://www.w3.org/1999/xlink">
    <!-- Generator: Sketch 50.2 (55047) - http://www.bohemiancoding.com/sketch -->
    <title>icon-time</title>
    <desc>Created with Sketch.</desc>
    <defs></defs>
    <g id="icon-time" stroke="none" stroke-width="1" fill="none" fill-rule="evenodd">
        <path d="M26.25,2.32464277 L16.639556,8.090909 L26.25,13.8571752 L26.25,9.704545 L27,9.704545 C39.1249567,9.704545 49.022727,19.6023156 49.022727,31.727273 C49.022727,43.8522289 39.1249562,53.75 27,53.75 C14.8750431,53.75 4.977273,43.8522292 4.977273,31.727273 C4.977273,26.0545651 6.91776802,21.0397346 10.5847978,17.111367 L8.32058108,14.8471503 C4.06863438,19.3668231 1.75,25.2732568 1.75,31.727273 C1.75,45.6023161 13.1249572,56.977273 27,56.977273 C40.8750434,56.977273 52.25,45.6023164 52.25,31.727273 C52.25,17.8522302 40.8750431,6.477273 27,6.477273 L26.25,6.477273 L26.25,2.32464277 Z" id="Path" fill="#ABD038"></path>
        <path d="M18.7813912,18.9226836 L24.5722789,30.3614735 L24.4463554,30.6762753 C24.2873152,31.0738671 24.204545,31.4193649 24.204545,31.727273 C24.2044487,31.7489752 24.2042129,31.7744702 24.2038376,31.8037582 C24.2037063,31.8238497 24.2081306,31.9469618 24.2171107,32.1730945 L16.9072511,39.482955 L19.244318,41.8200218 L26.5541851,34.5101548 L26.8823606,34.5233308 C26.8933815,34.5236319 26.8933815,34.5236319 26.9235231,34.5234347 C26.9674422,34.5228715 26.9674422,34.5228715 27,34.522727 C28.5438867,34.522727 29.795455,33.2711592 29.795455,31.727273 C29.795455,30.4606174 28.9632932,29.3833136 27.7613133,29.0526863 L27.4389339,28.9640097 L21.7110996,17.5083422 L18.7813912,18.9226836 Z" id="Path" fill="#ABD038"></path>
    </g>
</svg>