<?xml version="1.0" encoding="UTF-8"?>
<svg width="60px" height="60px" viewBox="0 0 60 60" version="1.1" xmlns="http://www.w3.org/2000/svg" xmlns:xlink="http://www.w3.org/1999/xlink">
    <!-- Generator: Sketch 50.2 (55047) - http://www.bohemiancoding.com/sketch -->
    <title>icon-calendar</title>
    <desc>Created with Sketch.</desc>
    <defs></defs>
    <g id="icon-calendar" stroke="none" stroke-width="1" fill="none" fill-rule="evenodd">
        <path d="M13.2,0 C12.57333,0 11.92744,0.222563 11.475,0.675 C11.02256,1.127437 10.8,1.773333 10.8,2.4 L10.8,4.8 L2.4,4.8 C1.77333,4.8 1.12744,5.022563 0.675,5.475 C0.22256,5.927437 0,6.573333 0,7.2 L0,57.6 C0,58.226666 0.22256,58.872563 0.675,59.325 C1.12744,59.777437 1.77333,60 2.4,60 L57.6,60 C58.22667,60 58.87256,59.777437 59.325,59.325 C59.77744,58.872563 60,58.226666 60,57.6 L60,7.2 C60,6.573333 59.77744,5.927437 59.325,5.475 C58.87256,5.022563 58.22667,4.8 57.6,4.8 L49.2,4.8 L49.2,2.4 C49.2,1.773333 48.97744,1.127437 48.525,0.675 C48.07256,0.222563 47.42667,0 46.8,0 L44.4,0 C43.77333,0 43.12744,0.222563 42.675,0.675 C42.22256,1.127437 42,1.773333 42,2.4 L42,4.8 L18,4.8 L18,2.4 C18,1.773333 17.77744,1.127437 17.325,0.675 C16.87256,0.222563 16.22667,0 15.6,0 L13.2,0 Z M13.2,2.4 L15.6,2.4 L15.6,9.6 L13.2,9.6 L13.2,2.4 Z M44.4,2.4 L46.8,2.4 L46.8,9.6 L44.4,9.6 L44.4,2.4 Z M2.4,7.2 L10.8,7.2 L10.8,9.6 C10.8,10.226667 11.02256,10.872563 11.475,11.325 C11.92744,11.777437 12.57333,12 13.2,12 L15.6,12 C16.22667,12 16.87256,11.777437 17.325,11.325 C17.77744,10.872563 18,10.226667 18,9.6 L18,7.2 L42,7.2 L42,9.6 C42,10.226667 42.22256,10.872563 42.675,11.325 C43.12744,11.777437 43.77333,12 44.4,12 L46.8,12 C47.42667,12 48.07256,11.777437 48.525,11.325 C48.97744,10.872563 49.2,10.226667 49.2,9.6 L49.2,7.2 L57.6,7.2 L57.6,16.8 L2.4,16.8 L2.4,7.2 Z M2.4,19.2 L57.6,19.2 L57.6,57.6 L2.4,57.6 L2.4,19.2 Z M8.175,25.2 C7.6013,25.309466 7.18971,25.816042 7.2,26.4 L7.2,51.6 C7.20007,52.262714 7.73729,52.799934 8.4,52.8 L36,52.8 L51.6,52.8 C52.26271,52.799934 52.79993,52.262714 52.8,51.6 L52.8,26.4 C52.79993,25.737286 52.26271,25.200066 51.6,25.2 L8.4,25.2 C8.36252,25.198241 8.32498,25.198241 8.2875,25.2 C8.25002,25.198241 8.21248,25.198241 8.175,25.2 Z M9.6,27.6 L18,27.6 L18,33.6 L9.6,33.6 L9.6,27.6 Z M20.4,27.6 L28.8,27.6 L28.8,33.6 L20.4,33.6 L20.4,27.6 Z M31.2,27.6 L39.6,27.6 L39.6,33.6 L31.2,33.6 L31.2,27.6 Z M42,27.6 L50.4,27.6 L50.4,33.6 L42,33.6 L42,27.6 Z M9.6,36 L18,36 L18,42 L9.6,42 L9.6,36 Z M20.4,36 L28.8,36 L28.8,42 L20.4,42 L20.4,36 Z M31.2,36 L39.6,36 L39.6,42 L31.2,42 L31.2,36 Z M42,36 L50.4,36 L50.4,42 L42,42 L42,36 Z M9.6,44.4 L18,44.4 L18,50.4 L9.6,50.4 L9.6,44.4 Z M20.4,44.4 L28.8,44.4 L28.8,50.4 L20.4,50.4 L20.4,44.4 Z M31.2,44.4 L39.6,44.4 L39.6,50.4 L36,50.4 L31.2,50.4 L31.2,44.4 Z M42,44.4 L50.4,44.4 L50.4,50.4 L42,50.4 L42,44.4 Z" fill="#ABD038" fill-rule="nonzero"></path>
    </g>
</svg>