<?xml version="1.0" encoding="UTF-8"?>
<svg width="100px" height="25px" viewBox="0 0 100 25" version="1.1" xmlns="http://www.w3.org/2000/svg" xmlns:xlink="http://www.w3.org/1999/xlink">
    <!-- Generator: Sketch 52.3 (67297) - http://www.bohemiancoding.com/sketch -->
    <title>linkedin</title>
    <desc>Created with Sketch.</desc>
    <defs>
        <polygon id="path-1" points="0.414932127 0 41.2266968 0 41.2266968 24.4072398 0.414932127 24.4072398"></polygon>
    </defs>
    <g id="linkedin" stroke="none" stroke-width="1" fill="none" fill-rule="evenodd">
        <polyline id="Fill-1" fill="#FFFFFE" points="0 3.61402715 3.76968326 3.61402715 3.76968326 17.3429864 10.7484163 17.3429864 10.7484163 20.821267 0 20.821267 0 3.61402715"></polyline>
        <path d="M14.2248869,3.35882353 C15.3850679,3.35882353 16.3266968,4.30045249 16.3266968,5.45927602 C16.3266968,6.62081448 15.3850679,7.55972851 14.2248869,7.55972851 C13.0660633,7.55972851 12.1244344,6.62081448 12.1244344,5.45927602 C12.1244344,4.30045249 13.0660633,3.35882353 14.2248869,3.35882353 Z M12.4135747,20.8153846 L16.0366516,20.8153846 L16.0366516,9.15520362 L12.4135747,9.15520362 L12.4135747,20.8153846 Z" id="Fill-2" fill="#FFFFFE"></path>
        <polyline id="Fill-3" fill="#FFFFFE" points="31.181448 3.61221719 34.80181 3.61221719 34.80181 13.8968326 38.9045249 9.15022624 43.3452489 9.15022624 38.5927602 14.5488688 43.2457014 20.821267 38.6923077 20.821267 34.8488688 15.0565611 34.80181 15.0565611 34.80181 20.821267 31.181448 20.821267 31.181448 3.61221719"></polyline>
        <path d="M18.0402715,9.15701357 L21.5176471,9.15701357 L21.5176471,10.7511312 L21.5660633,10.7511312 C22.0488688,9.83257919 23.2325792,8.8678733 24.9954751,8.8678733 C28.6669683,8.8678733 29.3429864,11.2819005 29.3429864,14.4208145 L29.3429864,20.8158371 L25.7199095,20.8158371 L25.7199095,15.1457014 C25.7199095,13.7932127 25.6954751,12.0556561 23.8352941,12.0556561 C21.9520362,12.0556561 21.6628959,13.5289593 21.6628959,15.0488688 L21.6628959,20.8158371 L18.0402715,20.8158371 L18.0402715,9.15701357" id="Fill-4" fill="#FFFFFE"></path>
        <path d="M54.0366516,18.7972851 C52.8769231,20.2701357 50.9701357,21.1167421 49.0868778,21.1167421 C45.4638009,21.1167421 42.5656109,18.7004525 42.5656109,14.9574661 C42.5656109,11.2140271 45.4638009,8.79954751 49.0868778,8.79954751 C52.4687783,8.79954751 54.5927602,11.2140271 54.5927602,14.9574661 L54.5927602,16.0927602 L46.1886878,16.0927602 C46.4760181,17.4687783 47.5171946,18.3628959 48.9167421,18.3628959 C50.10181,18.3628959 50.8968326,17.7588235 51.500905,16.9375566 L54.0366516,18.7972851 Z M50.9701357,13.6303167 C50.9936652,12.4226244 50.0520362,11.4076923 48.7466063,11.4076923 C47.1533937,11.4076923 46.2837104,12.4950226 46.1886878,13.6303167 L50.9701357,13.6303167 Z" id="Fill-5" fill="#FFFFFE"></path>
        <g id="Group-9" transform="translate(55.203620, 0.000000)">
            <mask id="mask-2" fill="white">
                <use xlink:href="#path-1"></use>
            </mask>
            <g id="Clip-7"></g>
            <path d="M13.1678733,20.8140271 L9.83438914,20.8140271 L9.83438914,19.2683258 L9.78733032,19.2683258 C9.22986425,20.1131222 7.83076923,21.1036199 6.18823529,21.1036199 C2.70859729,21.1036199 0.414932127,18.5932127 0.414932127,15.0425339 C0.414932127,11.7819005 2.44298643,8.78687783 5.77556561,8.78687783 C7.27420814,8.78687783 8.67556561,9.19728507 9.49683258,10.3325792 L9.54434389,10.3325792 L9.54434389,3.61221719 L13.1678733,3.61221719 L13.1678733,20.8140271 Z M6.93438914,11.9751131 C5.1239819,11.9751131 4.03800905,13.1837104 4.03800905,14.9438914 C4.03800905,16.7099548 5.1239819,17.9158371 6.93438914,17.9158371 C8.74705882,17.9158371 9.83438914,16.7099548 9.83438914,14.9438914 C9.83438914,13.1837104 8.74705882,11.9751131 6.93438914,11.9751131 Z" id="Fill-6" fill="#FFFFFE" mask="url(#mask-2)"></path>
            <path d="M39.4167421,0 L18.5950226,0 C17.599095,0 16.7904977,0.789140271 16.7904977,1.76063348 L16.7904977,22.6714932 C16.7904977,23.6443439 17.599095,24.4343891 18.5950226,24.4343891 L39.4167421,24.4343891 C40.4131222,24.4343891 41.2266968,23.6443439 41.2266968,22.6714932 L41.2266968,1.76063348 C41.2266968,0.789140271 40.4131222,0 39.4167421,0" id="Fill-8" fill="#0071A1" mask="url(#mask-2)"></path>
        </g>
        <path d="M77.4289593,3.3638009 C78.5882353,3.3638009 79.5298643,4.30588235 79.5298643,5.46470588 C79.5298643,6.62488688 78.5882353,7.56651584 77.4289593,7.56651584 C76.2678733,7.56651584 75.3289593,6.62488688 75.3289593,5.46470588 C75.3289593,4.30588235 76.2678733,3.3638009 77.4289593,3.3638009 Z M75.6162896,20.8208145 L79.2420814,20.8208145 L79.2420814,9.16063348 L75.6162896,9.16063348 L75.6162896,20.8208145 Z" id="Fill-10" fill="#FFFFFE"></path>
        <path d="M81.5149321,9.16063348 L84.9914027,9.16063348 L84.9914027,10.7538462 L85.0411765,10.7538462 C85.5253394,9.83710407 86.7076923,8.87013575 88.4705882,8.87013575 C92.138009,8.87013575 92.8153846,11.2846154 92.8153846,14.4253394 L92.8153846,20.821267 L89.1950226,20.821267 L89.1950226,15.1506787 C89.1950226,13.79819 89.1687783,12.0588235 87.3117647,12.0588235 C85.4257919,12.0588235 85.138009,13.5316742 85.138009,15.0533937 L85.138009,20.821267 L81.5149321,20.821267 L81.5149321,9.16063348" id="Fill-11" fill="#FFFFFE"></path>
        <polyline id="Fill-12" fill="#FFFFFE" points="97.2755656 19.7371041 97.6235294 19.7371041 97.6235294 20.821267 97.8122172 20.821267 97.8122172 19.7371041 98.159276 19.7371041 98.159276 19.5479638 97.2755656 19.5479638 97.2755656 19.7371041"></polyline>
        <polyline id="Fill-13" fill="#FFFFFE" points="99.3882353 19.5479638 99.0171946 20.4823529 98.6461538 19.5479638 98.3769231 19.5479638 98.3769231 20.821267 98.5651584 20.821267 98.5651584 19.8524887 98.9547511 20.821267 99.0800905 20.821267 99.4696833 19.8524887 99.4696833 20.821267 99.6574661 20.821267 99.6574661 19.5479638 99.3882353 19.5479638"></polyline>
    </g>
</svg>