<svg style="fill: #FFF" width="19px" height="19px" viewBox="0 0 28 28" version="1.1" xmlns="http://www.w3.org/2000/svg" xmlns:xlink="http://www.w3.org/1999/xlink"><path d="m512 203l0 227c0 12-4 23-13 32c-9 9-20 13-33 13l-420 0c-13 0-24-4-33-13c-9-9-13-20-13-32l0-227c8 9 18 17 29 25c69 47 116 79 142 98c11 8 20 15 26 19c7 4 16 9 27 14c12 4 22 7 32 7l0 0c10 0 20-3 32-7c11-5 20-10 27-14c6-4 15-11 26-19c33-23 80-56 142-98c11-8 21-16 29-25z m0-84c0 15-5 29-14 43c-9 14-21 25-35 35c-71 50-116 81-134 93c-1 1-6 4-12 9c-6 4-11 8-15 11c-4 2-9 5-15 9c-6 3-11 6-16 8c-6 1-10 2-15 2l0 0c-5 0-9-1-15-2c-5-2-10-5-16-8c-6-4-11-7-15-9c-4-3-9-7-15-11c-6-5-11-8-12-9c-18-12-43-30-75-52c-33-23-52-36-59-41c-12-8-23-19-33-33c-11-14-16-27-16-39c0-15 4-27 12-37c8-10 19-15 34-15l420 0c13 0 23 5 32 14c9 9 14 19 14 32z" transform="scale(0.046875 0.046875)"></path></svg>
