<?xml version="1.0" encoding="UTF-8" standalone="no"?>
<svg width="61px" height="61px" viewBox="0 0 61 61" version="1.1" xmlns="http://www.w3.org/2000/svg" xmlns:xlink="http://www.w3.org/1999/xlink">
    <!-- Generator: Sketch 39.1 (31720) - http://www.bohemiancoding.com/sketch -->
    <title>number-2</title>
    <desc>Created with Sketch.</desc>
    <defs></defs>
    <g id="Home" stroke="none" stroke-width="1" fill="none" fill-rule="evenodd">
        <g id="taxology-protocol-marketing-website" transform="translate(-737.000000, -2922.000000)">
            <g id="Step-1-Copy" transform="translate(737.000000, 2922.000000)">
                <g id="number-2" transform="translate(0.000000, 0.000000)">
                    <ellipse id="Oval" fill="#ABD038" cx="30.5" cy="30.5" rx="30.5" ry="30.5"></ellipse>
                    <path d="M22.48,43 L40.36,43 L40.36,38.04 L35.24,38.04 C34.04,38.04 32.28,38.2 31,38.36 C35.12,34.04 39.12,29.48 39.12,25.2 C39.12,20.32 35.72,17.12 30.72,17.12 C27.08,17.12 24.72,18.48 22.2,21.16 L25.4,24.32 C26.68,22.96 28.08,21.72 29.92,21.72 C32.12,21.72 33.52,23.08 33.52,25.56 C33.52,29.16 28.96,33.52 22.48,39.64 L22.48,43 Z" id="2" fill="#FFFFFF"></path>
                </g>
            </g>
        </g>
    </g>
</svg>