<?xml version="1.0" encoding="UTF-8" standalone="no"?>
<svg width="61px" height="61px" viewBox="0 0 61 61" version="1.1" xmlns="http://www.w3.org/2000/svg" xmlns:xlink="http://www.w3.org/1999/xlink">
    <!-- Generator: Sketch 39.1 (31720) - http://www.bohemiancoding.com/sketch -->
    <title>number-3</title>
    <desc>Created with Sketch.</desc>
    <defs></defs>
    <g id="Home" stroke="none" stroke-width="1" fill="none" fill-rule="evenodd">
        <g id="taxology-protocol-marketing-website" transform="translate(-259.000000, -3465.000000)">
            <g id="Step-1-Copy-2" transform="translate(259.000000, 3465.000000)">
                <g id="number-3">
                    <ellipse id="Oval" fill="#ABD038" cx="30.5" cy="30.5" rx="30.5" ry="30.5"></ellipse>
                    <path d="M30.72,43.48 C35.84,43.48 40.16,40.8 40.16,36.08 C40.16,32.8 38.04,30.72 35.12,29.88 L35.12,29.72 C37.84,28.56 39.36,26.72 39.36,24.08 C39.36,19.64 35.84,17.12 30.6,17.12 C27.48,17.12 24.92,18.36 22.6,20.36 L25.56,23.96 C27.16,22.56 28.52,21.72 30.32,21.72 C32.32,21.72 33.44,22.76 33.44,24.52 C33.44,26.56 32,27.92 27.44,27.92 L27.44,32.08 C32.96,32.08 34.28,33.48 34.28,35.72 C34.28,37.64 32.64,38.72 30.16,38.72 C28,38.72 26.12,37.64 24.6,36.16 L21.88,39.88 C23.72,42.04 26.6,43.48 30.72,43.48 L30.72,43.48 Z" id="3" fill="#FFFFFF"></path>
                </g>
            </g>
        </g>
    </g>
</svg>